<svg width="700" height="467" viewBox="0 0 700 467" fill="none" xmlns="http://www.w3.org/2000/svg">
<path d="M411.705 282.262H330.078V68.6065H411.705V282.262Z" fill="#ECECEC"/>
<path d="M411.705 282.262H370.892V68.6065H411.705V282.262Z" fill="#E1E1E1"/>
<path d="M368.223 68.6065H339.399V43.2096H368.223V68.6065Z" fill="#ECECEC"/>
<path d="M368.223 68.6065H361.354V43.2096H368.223V68.6065Z" fill="#E1E1E1"/>
<path d="M414.094 68.6065H323.275V67.1254H414.094V68.6065Z" fill="#E1E1E1"/>
<path d="M353.101 94.2518H346.191V79.6834H353.101V94.2518Z" fill="white"/>
<mask id="mask0_88_1091" style="mask-type:luminance" maskUnits="userSpaceOnUse" x="0" y="0" width="700" height="467">
<path d="M0 3.05176e-05H700V466.667H0V3.05176e-05Z" fill="white"/>
</mask>
<g mask="url(#mask0_88_1091)">
<path d="M370.892 99.97C370.892 100.124 361.755 100.248 350.486 100.248C339.214 100.248 330.078 100.124 330.078 99.97C330.078 99.816 339.214 99.6919 350.486 99.6919C361.755 99.6919 370.892 99.816 370.892 99.97Z" fill="#E1E1E1"/>
<path d="M394.269 94.2518H387.359V79.6834H394.269V94.2518Z" fill="#F5F5F5"/>
<path d="M412.06 99.97C412.06 100.124 402.923 100.248 391.655 100.248C380.382 100.248 371.246 100.124 371.246 99.97C371.246 99.816 380.382 99.6919 391.655 99.6919C402.923 99.6919 412.06 99.816 412.06 99.97Z" fill="#ECECEC"/>
<path d="M394.269 123.178H387.359V108.608H394.269V123.178Z" fill="#F5F5F5"/>
<path d="M412.06 128.895C412.06 129.049 402.923 129.173 391.655 129.173C380.382 129.173 371.246 129.049 371.246 128.895C371.246 128.741 380.382 128.617 391.655 128.617C402.923 128.617 412.06 128.741 412.06 128.895Z" fill="#ECECEC"/>
<path d="M394.269 152.975H387.359V138.406H394.269V152.975Z" fill="#F5F5F5"/>
<path d="M412.06 158.693C412.06 158.846 402.923 158.972 391.655 158.972C380.382 158.972 371.246 158.846 371.246 158.693C371.246 158.539 380.382 158.415 391.655 158.415C402.923 158.415 412.06 158.539 412.06 158.693Z" fill="#ECECEC"/>
<path d="M394.269 182.773H387.359V168.204H394.269V182.773Z" fill="#F5F5F5"/>
<path d="M412.06 188.491C412.06 188.645 402.923 188.769 391.655 188.769C380.382 188.769 371.246 188.645 371.246 188.491C371.246 188.337 380.382 188.213 391.655 188.213C402.923 188.213 412.06 188.337 412.06 188.491Z" fill="#ECECEC"/>
<path d="M394.269 211.719H387.359V197.151H394.269V211.719Z" fill="#F5F5F5"/>
<path d="M412.06 217.437C412.06 217.591 402.923 217.715 391.655 217.715C380.382 217.715 371.246 217.591 371.246 217.437C371.246 217.284 380.382 217.159 391.655 217.159C402.923 217.159 412.06 217.284 412.06 217.437Z" fill="#ECECEC"/>
<path d="M394.269 240.781H387.359V226.213H394.269V240.781Z" fill="#F5F5F5"/>
<path d="M394.269 270.225H387.359V255.657H394.269V270.225Z" fill="#F5F5F5"/>
<path d="M412.06 246.5C412.06 246.653 402.923 246.778 391.655 246.778C380.382 246.778 371.246 246.653 371.246 246.5C371.246 246.346 380.382 246.222 391.655 246.222C402.923 246.222 412.06 246.346 412.06 246.5Z" fill="#ECECEC"/>
<path d="M353.1 123.619H346.191V109.051H353.1V123.619Z" fill="white"/>
<path d="M370.892 129.337C370.892 129.491 361.755 129.615 350.486 129.615C339.214 129.615 330.078 129.491 330.078 129.337C330.078 129.183 339.214 129.059 350.486 129.059C361.755 129.059 370.892 129.183 370.892 129.337Z" fill="#E1E1E1"/>
<path d="M353.1 152.985H346.191V138.417H353.1V152.985Z" fill="white"/>
<path d="M370.892 158.703C370.892 158.857 361.755 158.982 350.486 158.982C339.214 158.982 330.078 158.857 330.078 158.703C330.078 158.549 339.214 158.425 350.486 158.425C361.755 158.425 370.892 158.549 370.892 158.703Z" fill="#E1E1E1"/>
<path d="M353.1 182.352H346.191V167.783H353.1V182.352Z" fill="white"/>
<path d="M370.892 188.07C370.892 188.224 361.755 188.348 350.486 188.348C339.214 188.348 330.078 188.224 330.078 188.07C330.078 187.916 339.214 187.792 350.486 187.792C361.755 187.792 370.892 187.916 370.892 188.07Z" fill="#E1E1E1"/>
<path d="M353.1 211.719H346.191V197.151H353.1V211.719Z" fill="white"/>
<path d="M370.892 217.437C370.892 217.591 361.755 217.715 350.486 217.715C339.214 217.715 330.078 217.591 330.078 217.437C330.078 217.284 339.214 217.159 350.486 217.159C361.755 217.159 370.892 217.284 370.892 217.437Z" fill="#E1E1E1"/>
<path d="M353.1 241.086H346.191V226.517H353.1V241.086Z" fill="white"/>
<path d="M370.892 246.804C370.892 246.957 361.755 247.082 350.486 247.082C339.214 247.082 330.078 246.957 330.078 246.804C330.078 246.65 339.214 246.525 350.486 246.525C361.755 246.525 370.892 246.65 370.892 246.804Z" fill="#E1E1E1"/>
<path d="M353.1 270.453H346.191V255.884H353.1V270.453Z" fill="white"/>
<path d="M338.492 282.262H254.621V123.087H338.492V282.262Z" fill="#E1E1E1"/>
<path d="M299.167 282.262H338.492V123.087H299.167V282.262Z" fill="#ECECEC"/>
<path d="M279.748 156.386H272.207V138.064H279.748V156.386Z" fill="#F5F5F5"/>
<path d="M279.748 228.093H272.207V209.771H279.748V228.093Z" fill="#F5F5F5"/>
<path d="M299.167 163.576C299.167 163.734 289.194 163.862 276.896 163.862C264.591 163.862 254.621 163.734 254.621 163.576C254.621 163.418 264.591 163.29 276.896 163.29C289.194 163.29 299.167 163.418 299.167 163.576Z" fill="#F5F5F5"/>
<path d="M279.748 192.511H272.207V174.19H279.748V192.511Z" fill="#F5F5F5"/>
<path d="M299.167 199.701C299.167 199.859 289.194 199.987 276.896 199.987C264.591 199.987 254.621 199.859 254.621 199.701C254.621 199.544 264.591 199.416 276.896 199.416C289.194 199.416 299.167 199.544 299.167 199.701Z" fill="#F5F5F5"/>
<path d="M315.059 156.386H307.517V138.064H315.059V156.386Z" fill="#E1E1E1"/>
<path d="M331.419 156.386H323.878V138.064H331.419V156.386Z" fill="#E1E1E1"/>
<path d="M315.059 191.151H307.517V172.83H315.059V191.151Z" fill="#E1E1E1"/>
<path d="M331.419 191.151H323.878V172.83H331.419V191.151Z" fill="#E1E1E1"/>
<path d="M315.059 225.917H307.517V207.596H315.059V225.917Z" fill="#E1E1E1"/>
<path d="M331.419 225.917H323.878V207.596H331.419V225.917Z" fill="#E1E1E1"/>
<path d="M344.797 123.225H248.316V119.236H344.797V123.225Z" fill="#E1E1E1"/>
<path d="M339.078 123.601C339.078 123.759 320.332 123.886 297.213 123.886C274.086 123.886 255.344 123.759 255.344 123.601C255.344 123.443 274.086 123.315 297.213 123.315C320.332 123.315 339.078 123.443 339.078 123.601Z" fill="#ECECEC"/>
<path d="M632.101 282.262H563.971V66.3451H632.101V282.262Z" fill="#F5F5F5"/>
<path d="M632.101 281.667H598.036V66.3442H632.101V281.667Z" fill="#ECECEC"/>
<path d="M595.808 66.3451H571.75V45.1481H595.808V66.3451Z" fill="#F5F5F5"/>
<path d="M595.808 66.3451H590.074V45.1481H595.808V66.3451Z" fill="#ECECEC"/>
<path d="M558.293 66.3449V65.1082H634.094V66.3449" fill="#E1E1E1"/>
<path d="M583.186 87.7492H577.419V75.5898H583.186V87.7492Z" fill="#FAFAFA"/>
<path d="M598.036 92.522C598.036 92.6508 590.409 92.7544 581.004 92.7544C571.595 92.7544 563.971 92.6508 563.971 92.522C563.971 92.3941 571.595 92.2896 581.004 92.2896C590.409 92.2896 598.036 92.3941 598.036 92.522Z" fill="#E1E1E1"/>
<path d="M617.547 87.7492H611.78V75.5898H617.547V87.7492Z" fill="#E1E1E1"/>
<path d="M632.397 92.522C632.397 92.6508 624.771 92.7544 615.365 92.7544C605.956 92.7544 598.332 92.6508 598.332 92.522C598.332 92.3941 605.956 92.2896 615.365 92.2896C624.771 92.2896 632.397 92.3941 632.397 92.522Z" fill="#E1E1E1"/>
<path d="M617.547 111.892H611.78V99.7323H617.547V111.892Z" fill="#E1E1E1"/>
<path d="M632.397 116.664C632.397 116.793 624.771 116.897 615.365 116.897C605.956 116.897 598.332 116.793 598.332 116.664C598.332 116.536 605.956 116.432 615.365 116.432C624.771 116.432 632.397 116.536 632.397 116.664Z" fill="#E1E1E1"/>
<path d="M617.547 136.762H611.78V124.603H617.547V136.762Z" fill="#E1E1E1"/>
<path d="M632.397 141.535C632.397 141.663 624.771 141.768 615.365 141.768C605.956 141.768 598.332 141.663 598.332 141.535C598.332 141.406 605.956 141.303 615.365 141.303C624.771 141.303 632.397 141.406 632.397 141.535Z" fill="#E1E1E1"/>
<path d="M617.547 161.634H611.78V149.474H617.547V161.634Z" fill="#E1E1E1"/>
<path d="M632.397 166.406C632.397 166.534 624.771 166.638 615.365 166.638C605.956 166.638 598.332 166.534 598.332 166.406C598.332 166.278 605.956 166.173 615.365 166.173C624.771 166.173 632.397 166.278 632.397 166.406Z" fill="#E1E1E1"/>
<path d="M617.547 185.792H611.78V173.633H617.547V185.792Z" fill="#E1E1E1"/>
<path d="M632.397 190.565C632.397 190.694 624.771 190.797 615.365 190.797C605.956 190.797 598.332 190.694 598.332 190.565C598.332 190.437 605.956 190.332 615.365 190.332C624.771 190.332 632.397 190.437 632.397 190.565Z" fill="#E1E1E1"/>
<path d="M617.547 210.049H611.78V197.89H617.547V210.049Z" fill="#E1E1E1"/>
<path d="M617.547 234.624H611.78V222.464H617.547V234.624Z" fill="#E1E1E1"/>
<path d="M632.397 214.822C632.397 214.95 624.771 215.054 615.365 215.054C605.956 215.054 598.332 214.95 598.332 214.822C598.332 214.694 605.956 214.589 615.365 214.589C624.771 214.589 632.397 214.694 632.397 214.822Z" fill="#E1E1E1"/>
<path d="M583.186 112.26H577.419V100.1H583.186V112.26Z" fill="#FAFAFA"/>
<path d="M598.036 117.033C598.036 117.161 590.409 117.265 581.004 117.265C571.595 117.265 563.971 117.161 563.971 117.033C563.971 116.905 571.595 116.801 581.004 116.801C590.409 116.801 598.036 116.905 598.036 117.033Z" fill="#E1E1E1"/>
<path d="M583.186 136.771H577.419V124.611H583.186V136.771Z" fill="#FAFAFA"/>
<path d="M598.036 141.543C598.036 141.672 590.409 141.776 581.004 141.776C571.595 141.776 563.971 141.672 563.971 141.543C563.971 141.416 571.595 141.311 581.004 141.311C590.409 141.311 598.036 141.416 598.036 141.543Z" fill="#E1E1E1"/>
<path d="M583.186 161.282H577.419V149.122H583.186V161.282Z" fill="#FAFAFA"/>
<path d="M598.036 166.054C598.036 166.182 590.409 166.287 581.004 166.287C571.595 166.287 563.971 166.182 563.971 166.054C563.971 165.926 571.595 165.822 581.004 165.822C590.409 165.822 598.036 165.926 598.036 166.054Z" fill="#E1E1E1"/>
<path d="M583.186 185.792H577.419V173.633H583.186V185.792Z" fill="#FAFAFA"/>
<path d="M598.036 190.565C598.036 190.694 590.409 190.797 581.004 190.797C571.595 190.797 563.971 190.694 563.971 190.565C563.971 190.437 571.595 190.332 581.004 190.332C590.409 190.332 598.036 190.437 598.036 190.565Z" fill="#E1E1E1"/>
<path d="M583.186 210.303H577.419V198.144H583.186V210.303Z" fill="#FAFAFA"/>
<path d="M598.036 215.076C598.036 215.204 590.409 215.308 581.004 215.308C571.595 215.308 563.971 215.204 563.971 215.076C563.971 214.948 571.595 214.843 581.004 214.843C590.409 214.843 598.036 214.948 598.036 215.076Z" fill="#E1E1E1"/>
<path d="M583.186 234.814H577.419V222.654H583.186V234.814Z" fill="#FAFAFA"/>
<path d="M167.025 282.262H105.636V87.7063H167.025V282.262Z" fill="#F5F5F5"/>
<path d="M167.025 281.727H136.33V87.7072H167.025V281.727Z" fill="#ECECEC"/>
<path d="M134.324 87.7063H112.646V68.6065H134.324V87.7063Z" fill="#F5F5F5"/>
<path d="M134.324 87.7063H129.157V68.6065H134.324V87.7063Z" fill="#ECECEC"/>
<path d="M100.52 87.7067V86.5923H168.821V87.7067" fill="#E1E1E1"/>
<path d="M122.95 106.995H117.754V96.0372H122.95V106.995Z" fill="#FAFAFA"/>
<path d="M136.331 111.294C136.331 111.41 129.458 111.503 120.984 111.503C112.506 111.503 105.636 111.41 105.636 111.294C105.636 111.178 112.506 111.085 120.984 111.085C129.458 111.085 136.331 111.178 136.331 111.294Z" fill="#E1E1E1"/>
<path d="M153.911 106.995H148.715V96.0372H153.911V106.995Z" fill="#E1E1E1"/>
<path d="M167.292 111.294C167.292 111.41 160.42 111.503 151.945 111.503C143.468 111.503 136.598 111.41 136.598 111.294C136.598 111.178 143.468 111.085 151.945 111.085C160.42 111.085 167.292 111.178 167.292 111.294Z" fill="#E1E1E1"/>
<path d="M153.911 128.748H148.715V117.791H153.911V128.748Z" fill="#E1E1E1"/>
<path d="M167.292 133.048C167.292 133.163 160.42 133.257 151.945 133.257C143.468 133.257 136.598 133.163 136.598 133.048C136.598 132.932 143.468 132.839 151.945 132.839C160.42 132.839 167.292 132.932 167.292 133.048Z" fill="#E1E1E1"/>
<path d="M153.911 151.157H148.715V140.201H153.911V151.157Z" fill="#E1E1E1"/>
<path d="M167.292 155.458C167.292 155.574 160.42 155.667 151.945 155.667C143.468 155.667 136.598 155.574 136.598 155.458C136.598 155.342 143.468 155.248 151.945 155.248C160.42 155.248 167.292 155.342 167.292 155.458Z" fill="#E1E1E1"/>
<path d="M153.911 173.567H148.715V162.611H153.911V173.567Z" fill="#E1E1E1"/>
<path d="M167.292 177.868C167.292 177.984 160.42 178.078 151.945 178.078C143.468 178.078 136.598 177.984 136.598 177.868C136.598 177.752 143.468 177.659 151.945 177.659C160.42 177.659 167.292 177.752 167.292 177.868Z" fill="#E1E1E1"/>
<path d="M153.911 195.336H148.715V184.38H153.911V195.336Z" fill="#E1E1E1"/>
<path d="M167.292 199.637C167.292 199.753 160.42 199.846 151.945 199.846C143.468 199.846 136.598 199.753 136.598 199.637C136.598 199.521 143.468 199.428 151.945 199.428C160.42 199.428 167.292 199.521 167.292 199.637Z" fill="#E1E1E1"/>
<path d="M153.911 217.194H148.715V206.237H153.911V217.194Z" fill="#E1E1E1"/>
<path d="M153.911 239.337H148.715V228.38H153.911V239.337Z" fill="#E1E1E1"/>
<path d="M167.292 221.494C167.292 221.61 160.42 221.703 151.945 221.703C143.468 221.703 136.598 221.61 136.598 221.494C136.598 221.378 143.468 221.285 151.945 221.285C160.42 221.285 167.292 221.378 167.292 221.494Z" fill="#E1E1E1"/>
<path d="M122.95 129.08H117.754V118.123H122.95V129.08Z" fill="#FAFAFA"/>
<path d="M136.331 133.38C136.331 133.496 129.458 133.589 120.984 133.589C112.506 133.589 105.636 133.496 105.636 133.38C105.636 133.264 112.506 133.171 120.984 133.171C129.458 133.171 136.331 133.264 136.331 133.38Z" fill="#E1E1E1"/>
<path d="M122.95 151.165H117.754V140.209H122.95V151.165Z" fill="#FAFAFA"/>
<path d="M136.331 155.465C136.331 155.581 129.458 155.675 120.984 155.675C112.506 155.675 105.636 155.581 105.636 155.465C105.636 155.35 112.506 155.256 120.984 155.256C129.458 155.256 136.331 155.35 136.331 155.465Z" fill="#E1E1E1"/>
<path d="M122.95 173.251H117.754V162.295H122.95V173.251Z" fill="#FAFAFA"/>
<path d="M136.331 177.551C136.331 177.667 129.458 177.761 120.984 177.761C112.506 177.761 105.636 177.667 105.636 177.551C105.636 177.436 112.506 177.342 120.984 177.342C129.458 177.342 136.331 177.436 136.331 177.551Z" fill="#E1E1E1"/>
<path d="M122.95 195.336H117.754V184.38H122.95V195.336Z" fill="#FAFAFA"/>
<path d="M136.331 199.637C136.331 199.753 129.458 199.846 120.984 199.846C112.506 199.846 105.636 199.753 105.636 199.637C105.636 199.521 112.506 199.428 120.984 199.428C129.458 199.428 136.331 199.521 136.331 199.637Z" fill="#E1E1E1"/>
<path d="M122.95 217.423H117.754V206.465H122.95V217.423Z" fill="#FAFAFA"/>
<path d="M136.331 221.723C136.331 221.838 129.458 221.933 120.984 221.933C112.506 221.933 105.636 221.838 105.636 221.723C105.636 221.607 112.506 221.514 120.984 221.514C129.458 221.514 136.331 221.607 136.331 221.723Z" fill="#E1E1E1"/>
<path d="M122.95 239.508H117.754V228.552H122.95V239.508Z" fill="#FAFAFA"/>
<path d="M569.139 282.522H470.164L469.733 126.099H568.708L569.139 282.522Z" fill="#ECECEC"/>
<path d="M568.708 282.522H519.222V126.099H568.708V282.522Z" fill="#E1E1E1"/>
<path d="M515.985 126.1H481.035V95.3055H515.985V126.1Z" fill="#ECECEC"/>
<path d="M515.985 126.1H507.655V95.3055H515.985V126.1Z" fill="#E1E1E1"/>
<path d="M571.604 126.1H461.486V124.303H571.604V126.1Z" fill="#E1E1E1"/>
<path d="M497.648 157.195H489.27V139.53H497.648V157.195Z" fill="white"/>
<path d="M519.221 164.128C519.221 164.315 508.142 164.465 494.478 164.465C480.81 164.465 469.734 164.315 469.734 164.128C469.734 163.942 480.81 163.791 494.478 163.791C508.142 163.791 519.221 163.942 519.221 164.128Z" fill="#E1E1E1"/>
<path d="M547.566 157.195H539.188V139.53H547.566V157.195Z" fill="#F5F5F5"/>
<path d="M569.139 164.128C569.139 164.315 558.06 164.465 544.396 164.465C530.728 164.465 519.653 164.315 519.653 164.128C519.653 163.942 530.728 163.791 544.396 163.791C558.06 163.791 569.139 163.942 569.139 164.128Z" fill="#ECECEC"/>
<path d="M547.566 192.268H539.188V174.602H547.566V192.268Z" fill="#F5F5F5"/>
<path d="M569.139 199.201C569.139 199.388 558.06 199.538 544.396 199.538C530.728 199.538 519.653 199.388 519.653 199.201C519.653 199.014 530.728 198.864 544.396 198.864C558.06 198.864 569.139 199.014 569.139 199.201Z" fill="#ECECEC"/>
<path d="M547.566 228.399H539.188V210.734H547.566V228.399Z" fill="#F5F5F5"/>
<path d="M569.139 235.331C569.139 235.517 558.06 235.668 544.396 235.668C530.728 235.668 519.653 235.517 519.653 235.331C519.653 235.146 530.728 234.995 544.396 234.995C558.06 234.995 569.139 235.146 569.139 235.331Z" fill="#ECECEC"/>
<path d="M547.566 264.529H539.188V246.864H547.566V264.529Z" fill="#F5F5F5"/>
<path d="M569.139 271.462C569.139 271.648 558.06 271.8 544.396 271.8C530.728 271.8 519.653 271.648 519.653 271.462C519.653 271.276 530.728 271.125 544.396 271.125C558.06 271.125 569.139 271.276 569.139 271.462Z" fill="#ECECEC"/>
<path d="M497.648 192.803H489.27V175.138H497.648V192.803Z" fill="white"/>
<path d="M519.221 199.736C519.221 199.922 508.142 200.074 494.478 200.074C480.81 200.074 469.734 199.922 469.734 199.736C469.734 199.55 480.81 199.399 494.478 199.399C508.142 199.399 519.221 199.55 519.221 199.736Z" fill="#E1E1E1"/>
<path d="M497.648 228.411H489.27V210.746H497.648V228.411Z" fill="white"/>
<path d="M519.221 235.343C519.221 235.53 508.142 235.681 494.478 235.681C480.81 235.681 469.734 235.53 469.734 235.343C469.734 235.158 480.81 235.007 494.478 235.007C508.142 235.007 519.221 235.158 519.221 235.343Z" fill="#E1E1E1"/>
<path d="M497.648 264.018H489.27V246.352H497.648V264.018Z" fill="white"/>
<path d="M519.221 270.951C519.221 271.138 508.142 271.288 494.478 271.288C480.81 271.288 469.734 271.138 469.734 270.951C469.734 270.766 480.81 270.615 494.478 270.615C508.142 270.615 519.221 270.766 519.221 270.951Z" fill="#E1E1E1"/>
<path d="M604.191 282.262C604.191 282.397 483.879 282.505 335.503 282.505C187.075 282.505 66.7896 282.397 66.7896 282.262C66.7896 282.127 187.075 282.019 335.503 282.019C483.879 282.019 604.191 282.127 604.191 282.262Z" fill="#E1E1E1"/>
<path d="M116.622 127.673C117.06 124.495 112.574 121.881 109.204 121.609C107.597 121.479 105.927 121.725 104.405 121.195C101.105 120.045 99.7875 115.782 96.5694 114.425C94.1623 113.41 91.3922 114.314 89.0589 115.488C86.7255 116.662 84.4202 118.14 81.8134 118.306C79.5463 118.452 77.0842 117.611 75.1009 118.718C73.6225 119.544 72.8487 121.247 71.4861 122.251C70.1533 123.235 68.4145 123.443 66.7606 123.533C65.1067 123.623 63.395 123.64 61.8886 124.329C60.3831 125.018 59.1371 126.611 59.4498 128.237L116.622 127.673Z" fill="#F5F5F5"/>
<path d="M245.743 75.1687C246.181 71.9907 241.695 69.3755 238.325 69.1039C236.718 68.9751 235.049 69.2206 233.526 68.6905C230.227 67.5406 228.908 63.2781 225.69 61.9201C223.283 60.9055 220.513 61.809 218.18 62.9831C215.846 64.1573 213.541 65.6347 210.934 65.8018C208.667 65.9474 206.205 65.1065 204.222 66.2134C202.743 67.0394 201.97 68.7427 200.607 69.747C199.274 70.7307 197.535 70.9389 195.881 71.0285C194.228 71.1181 192.516 71.1349 191.009 71.8246C189.504 72.5143 188.258 74.1066 188.571 75.7325L245.743 75.1687Z" fill="#F5F5F5"/>
<path d="M490.081 73.6876C490.518 70.5096 486.033 67.8944 482.662 67.6228C481.055 67.494 479.386 67.7395 477.863 67.2094C474.565 66.0595 473.247 61.797 470.028 60.439C467.622 59.4244 464.851 60.3279 462.517 61.502C460.185 62.6762 457.879 64.1546 455.272 64.3207C453.005 64.4663 450.544 63.6254 448.559 64.7323C447.082 65.5583 446.307 67.2616 444.945 68.2659C443.612 69.2496 441.874 69.4578 440.219 69.5474C438.566 69.637 436.854 69.6538 435.347 70.3435C433.842 71.0332 432.596 72.6255 432.908 74.2514L490.081 73.6876Z" fill="#F5F5F5"/>
</g>
<mask id="mask1_88_1091" style="mask-type:luminance" maskUnits="userSpaceOnUse" x="0" y="0" width="700" height="467">
<path d="M0 3.05176e-05H700V466.667H0V3.05176e-05Z" fill="white"/>
</mask>
<g mask="url(#mask1_88_1091)">
<path d="M671.051 431.941C671.051 432.076 525.628 432.185 346.282 432.185C166.874 432.185 21.4824 432.076 21.4824 431.941C21.4824 431.807 166.874 431.699 346.282 431.699C525.628 431.699 671.051 431.807 671.051 431.941Z" fill="#1A2E35"/>
</g>
<path d="M168.26 408.877H59.011V337.864H168.26V408.877Z" fill="#69735D"/>
<path d="M59.0342 408.854H168.237V337.888H59.0342V408.854ZM168.284 408.902H58.9875V337.841H168.284V408.902Z" fill="#1A2E35"/>
<mask id="mask2_88_1091" style="mask-type:luminance" maskUnits="userSpaceOnUse" x="0" y="0" width="700" height="467">
<path d="M0 3.05176e-05H700V466.667H0V3.05176e-05Z" fill="white"/>
</mask>
<g mask="url(#mask2_88_1091)">
<mask id="mask3_88_1091" style="mask-type:luminance" maskUnits="userSpaceOnUse" x="59" y="337" width="111" height="72">
<path d="M59.7881 337.864H169.038V408.878H59.7881V337.864Z" fill="white"/>
</mask>
<g mask="url(#mask3_88_1091)">
<g opacity="0.300003">
<path d="M169.038 408.877H59.7886V337.864H169.038V408.877Z" fill="#698DF6"/>
</g>
</g>
<path d="M630.692 159.09H54.7232C41.7489 159.09 31.2302 167.366 31.2302 177.576V390.596C31.2302 400.805 41.7489 409.081 54.7232 409.081H79.7608C77.7802 404.127 76.6798 398.725 76.6798 393.063C76.6798 369.207 96.0185 349.869 119.874 349.869C143.729 349.869 163.068 369.207 163.068 393.063C163.068 398.725 161.967 404.127 159.986 409.081H630.692C643.667 409.081 654.185 400.805 654.185 390.596V177.576C654.185 167.366 643.667 159.09 630.692 159.09Z" fill="#698DF6" stroke="#698DF6" stroke-width="1.333"/>
<path d="M529.037 314.669H298.446V176.125H529.037V314.669Z" fill="#375A64"/>
<path d="M31.6274 176.363C31.6274 176.229 171.092 176.121 343.089 176.121C515.147 176.121 654.582 176.229 654.582 176.363C654.582 176.498 515.147 176.606 343.089 176.606C171.092 176.606 31.6274 176.498 31.6274 176.363Z" fill="#1A2E35"/>
<path d="M503.909 163.824H351.894C348.101 163.824 345.027 160.75 345.027 156.958C345.027 153.166 348.101 150.091 351.894 150.091H503.909C507.701 150.091 510.775 153.166 510.775 156.958C510.775 160.75 507.701 163.824 503.909 163.824Z" fill="#698DF6"/>
<path d="M132.879 163.824H65.9202C62.1281 163.824 59.0537 160.75 59.0537 156.958C59.0537 153.166 62.1281 150.091 65.9202 150.091H132.879C136.671 150.091 139.745 153.166 139.745 156.958C139.745 160.75 136.671 163.824 132.879 163.824Z" fill="#698DF6"/>
<mask id="mask4_88_1091" style="mask-type:luminance" maskUnits="userSpaceOnUse" x="418" y="335" width="96" height="75">
<path d="M418.138 335.592H513.13V409.081H418.138V335.592Z" fill="white"/>
</mask>
<g mask="url(#mask4_88_1091)">
<g opacity="0.300003">
<path d="M513.131 409.081H418.138V335.592H513.131V409.081Z" fill="black"/>
</g>
</g>
<path d="M656.032 385.197H639.037C636.05 385.197 633.629 382.775 633.629 379.789C633.629 376.803 636.05 374.382 639.037 374.382H656.032C659.018 374.382 661.439 376.803 661.439 379.789C661.439 382.775 659.018 385.197 656.032 385.197Z" fill="#375A64"/>
<path d="M654.185 370.87H645.618C637.94 370.87 631.713 364.644 631.713 356.965C631.713 349.285 637.94 343.059 645.618 343.059H654.185V370.87Z" fill="#ECECEC"/>
<path d="M654.185 370.87C654.176 370.861 654.167 370.672 654.158 370.317C654.152 369.929 654.142 369.415 654.13 368.769C654.116 367.389 654.095 365.444 654.07 363.008C654.043 358.072 654.004 351.159 653.96 343.059L654.185 343.284C651.645 343.289 648.982 343.294 646.224 343.298C643.496 343.213 640.665 343.909 638.248 345.473C635.722 347.103 633.8 349.516 632.83 352.181C632.556 352.837 632.407 353.525 632.231 354.198C632.13 354.886 631.987 355.564 631.982 356.248C631.889 357.61 632.036 358.954 632.344 360.219C632.935 362.769 634.289 364.951 635.896 366.618C637.542 368.262 639.464 369.376 641.336 370.008C643.214 370.667 645.04 370.739 646.608 370.734C648.177 370.754 649.535 370.772 650.661 370.785C651.755 370.806 652.62 370.821 653.253 370.833C653.53 370.84 653.755 370.847 653.939 370.851C654.096 370.858 654.179 370.863 654.185 370.87C654.191 370.876 654.12 370.882 653.974 370.888C653.798 370.892 653.582 370.899 653.316 370.906C652.689 370.919 651.832 370.933 650.746 370.954C649.603 370.968 648.223 370.986 646.63 371.005C645.027 371.04 643.163 370.989 641.229 370.334C639.302 369.709 637.316 368.582 635.61 366.902C633.943 365.199 632.533 362.956 631.909 360.325C631.583 359.021 631.428 357.632 631.518 356.224C631.523 355.517 631.666 354.816 631.769 354.103C631.949 353.406 632.104 352.693 632.385 352.014C633.383 349.253 635.368 346.752 637.986 345.065C640.478 343.444 643.445 342.725 646.224 342.821C648.982 342.825 651.645 342.83 654.185 342.834L654.412 342.835L654.41 343.059C654.366 351.219 654.328 358.184 654.301 363.156C654.275 365.571 654.254 367.499 654.24 368.867C654.228 369.494 654.219 369.994 654.212 370.37C654.204 370.708 654.195 370.879 654.185 370.87Z" fill="#1A2E35"/>
<path d="M70.1457 377.843H54.3873C51.0609 377.843 48.3645 375.147 48.3645 371.821C48.3645 368.493 51.0609 365.798 54.3873 365.798H70.1457C73.4721 365.798 76.1694 368.493 76.1694 371.821C76.1694 375.147 73.4721 377.843 70.1457 377.843Z" fill="#F5F5F5"/>
<path d="M70.1456 377.843C70.1269 377.765 71.1657 377.909 72.7355 377.147C73.5074 376.767 74.3698 376.102 75.0456 375.082C75.7073 374.065 76.1385 372.667 75.9546 371.144C75.7857 369.634 74.9233 368.041 73.4449 367.026C72.7094 366.52 71.8256 366.185 70.8866 366.064C69.9608 365.965 68.9098 366.041 67.885 366.021C63.7308 366.027 59.1742 366.034 54.389 366.041C52.066 366.013 49.924 367.508 49.084 369.513C48.2048 371.512 48.5818 373.873 49.8474 375.422C50.4644 376.209 51.2764 376.801 52.1425 377.18C53.0254 377.552 53.9364 377.659 54.8576 377.642C56.6981 377.653 58.4164 377.663 59.99 377.672C63.0877 377.704 65.6133 377.731 67.4212 377.749C68.2602 377.768 68.9322 377.784 69.4409 377.795C69.9029 377.811 70.1456 377.827 70.1456 377.843C70.1456 377.861 69.9029 377.877 69.4409 377.893C68.9322 377.904 68.2602 377.919 67.4212 377.939C65.6133 377.957 63.0877 377.983 59.99 378.016C58.4164 378.025 56.6981 378.035 54.8576 378.046C53.9392 378.073 52.9144 377.969 51.9773 377.574C51.043 377.175 50.1657 376.544 49.4965 375.701C48.1236 374.039 47.7008 371.489 48.6472 369.323C49.5497 367.149 51.8709 365.526 54.389 365.554C59.1742 365.561 63.7308 365.567 67.885 365.574C68.9313 365.6 69.9113 365.527 70.9408 365.64C71.9478 365.776 72.8924 366.147 73.6736 366.694C75.2434 367.793 76.1394 369.502 76.2962 371.105C76.4689 372.719 75.9854 374.185 75.2724 375.233C74.5425 376.285 73.6269 376.951 72.8186 377.318C72.0076 377.692 71.316 377.807 70.854 377.848C70.6225 377.87 70.4433 377.858 70.3248 377.86C70.2062 377.857 70.1456 377.853 70.1456 377.843Z" fill="#1A2E35"/>
<path d="M676.512 197.39H673.712C673.712 184.604 666.193 174.201 656.951 174.201H626.188V171.401H656.951C667.737 171.401 676.512 183.06 676.512 197.39Z" fill="#698DF6"/>
<path d="M676.059 259.925H669.059C667.301 259.925 665.876 258.5 665.876 256.743V193.109C665.876 191.351 667.301 189.925 669.059 189.925H676.059C677.818 189.925 679.242 191.351 679.242 193.109V256.743C679.242 258.5 677.818 259.925 676.059 259.925Z" fill="#698DF6"/>
<path d="M676.059 259.925C676.044 259.873 676.664 259.989 677.601 259.469C678.052 259.202 678.568 258.748 678.883 258.042C679.243 257.343 679.146 256.424 679.148 255.403C679.129 251.3 679.103 245.402 679.071 238.124C679.055 230.821 679.038 222.137 679.018 212.495C679.013 207.672 679.009 202.609 679.004 197.361C679.003 196.05 679.002 194.726 679.001 193.391C679.105 192.11 678.362 190.87 677.181 190.391C676.602 190.133 675.964 190.166 675.265 190.168C674.583 190.168 673.899 190.168 673.211 190.169H669.063C667.766 190.152 666.539 191.088 666.227 192.332C666.049 192.927 666.144 193.627 666.119 194.311V196.352C666.117 199.064 666.116 201.734 666.115 204.359C666.109 209.608 666.105 214.672 666.1 219.496C666.081 229.138 666.063 237.823 666.048 245.126C666.035 248.771 666.022 252.07 666.012 254.971C666.016 255.69 665.99 256.409 666.018 257.055C666.085 257.699 666.349 258.294 666.741 258.746C667.129 259.204 667.634 259.516 668.153 259.684C668.677 259.854 669.21 259.824 669.724 259.83C671.745 259.85 673.323 259.866 674.421 259.876C674.941 259.886 675.345 259.895 675.643 259.9C675.919 259.908 676.059 259.916 676.059 259.925C676.059 259.934 675.919 259.942 675.643 259.95C675.345 259.955 674.941 259.964 674.421 259.974C673.323 259.984 671.745 260 669.724 260.02C669.223 260.02 668.658 260.06 668.092 259.885C667.533 259.713 666.987 259.385 666.566 258.897C666.139 258.416 665.847 257.778 665.768 257.081C665.73 256.383 665.751 255.702 665.74 254.971C665.73 252.07 665.718 248.771 665.704 245.126C665.69 237.823 665.671 229.138 665.653 219.496C665.648 214.672 665.643 209.608 665.638 204.359C665.637 201.734 665.636 199.064 665.634 196.352V194.311L665.633 193.286C665.629 192.945 665.653 192.553 665.758 192.203C666.123 190.753 667.552 189.663 669.063 189.683C670.454 189.683 671.838 189.683 673.211 189.684C673.899 189.684 674.583 189.684 675.265 189.684C675.922 189.682 676.686 189.642 677.366 189.944C678.74 190.481 679.604 191.995 679.483 193.391C679.482 194.726 679.481 196.05 679.48 197.361C679.475 202.609 679.471 207.672 679.466 212.495C679.447 222.137 679.429 230.821 679.415 238.124C679.382 245.402 679.355 251.3 679.337 255.403C679.331 255.914 679.326 256.396 679.321 256.85C679.302 257.314 679.186 257.74 679.013 258.103C678.671 258.836 678.122 259.293 677.65 259.554C677.17 259.816 676.752 259.896 676.478 259.92C676.201 259.944 676.059 259.925 676.059 259.925Z" fill="#001A00"/>
<path d="M171.622 318.721L120.691 317.417L77.8504 267.392H42.561V176.363H171.622V318.721Z" fill="#375A64"/>
<path d="M171.622 318.722C171.622 318.722 171.614 318.487 171.61 318.04C171.607 317.586 171.603 316.923 171.598 316.052C171.592 314.296 171.583 311.706 171.572 308.337C171.559 301.59 171.539 291.726 171.515 279.217C171.488 254.22 171.45 218.658 171.406 176.363L171.622 176.581C137.461 176.588 98.239 176.598 56.7197 176.606C51.9681 176.606 47.2473 176.606 42.561 176.606L42.8037 176.363C42.7962 208.704 42.7897 239.439 42.7831 267.392L42.561 267.171C54.9221 267.177 66.6998 267.183 77.8503 267.189H77.9446L78.0053 267.26C94.655 286.736 109.145 303.688 120.8 317.322L120.695 317.271C136.791 317.719 149.505 318.072 158.206 318.314C162.558 318.44 165.905 318.538 168.172 318.604C169.3 318.639 170.158 318.666 170.743 318.684C171.321 318.704 171.622 318.722 171.622 318.722C171.622 318.722 171.34 318.724 170.77 318.713C170.191 318.702 169.341 318.685 168.225 318.664C165.964 318.613 162.628 318.54 158.289 318.444C149.568 318.238 136.822 317.94 120.688 317.561L120.623 317.559L120.581 317.51C108.901 303.896 94.3806 286.972 77.6964 267.525L77.8503 267.597C66.6998 267.602 54.9221 267.608 42.561 267.614H42.3389V267.392C42.3333 239.439 42.3258 208.704 42.3184 176.363V176.121H42.561H56.7197C98.239 176.13 137.461 176.138 171.622 176.146H171.84V176.363C171.795 218.717 171.757 254.327 171.731 279.359C171.705 291.847 171.686 301.695 171.673 308.43C171.662 311.781 171.653 314.355 171.648 316.101C171.642 316.961 171.638 317.616 171.634 318.066C171.631 318.504 171.622 318.722 171.622 318.722Z" fill="#1A2E35"/>
<path d="M427.905 393.377C427.606 414.135 444.191 431.205 464.947 431.504C485.706 431.804 502.776 415.218 503.075 394.461C503.374 373.705 486.79 356.634 466.032 356.335C445.274 356.035 428.204 372.62 427.905 393.377Z" fill="#1A2E35"/>
<path d="M427.912 393.281C427.911 393.313 427.906 393.344 427.905 393.378C427.606 414.135 444.19 431.205 464.948 431.504C485.706 431.803 502.776 415.219 503.074 394.462C503.075 394.429 503.071 394.397 503.072 394.364L427.912 393.281Z" fill="#1A2E35"/>
<path d="M439.103 393.539C438.893 408.112 450.536 420.097 465.11 420.307C479.684 420.517 491.667 408.873 491.878 394.299C492.088 379.726 480.444 367.742 465.871 367.532C451.297 367.322 439.314 378.966 439.103 393.539Z" fill="#FAFAFA"/>
<path d="M465.871 367.532C451.298 367.322 439.314 378.966 439.103 393.539L491.877 394.3C492.088 379.726 480.444 367.743 465.871 367.532Z" fill="#E1E1E1"/>
<path d="M449.417 393.687C449.288 402.565 456.382 409.865 465.258 409.994C474.135 410.121 481.437 403.029 481.564 394.151C481.693 385.273 474.598 377.974 465.722 377.845C456.844 377.718 449.545 384.81 449.417 393.687Z" fill="#1A2E35"/>
<path d="M82.1585 393.758C81.8589 414.515 98.4433 431.586 119.201 431.885C139.959 432.184 157.029 415.599 157.328 394.842C157.628 374.085 141.043 357.015 120.285 356.715C99.5279 356.416 82.4581 373.001 82.1585 393.758Z" fill="#1A2E35"/>
<path d="M82.1651 393.661C82.1651 393.694 82.1595 393.725 82.1585 393.758C81.8589 414.515 98.4433 431.586 119.202 431.885C139.959 432.183 157.029 415.6 157.328 394.843C157.329 394.809 157.325 394.777 157.325 394.745L82.1651 393.661Z" fill="#1A2E35"/>
<path d="M93.3568 393.92C93.1459 408.493 104.79 420.477 119.362 420.688C133.936 420.898 145.92 409.254 146.13 394.68C146.341 380.107 134.697 368.122 120.124 367.913C105.551 367.702 93.5668 379.347 93.3568 393.92Z" fill="#FAFAFA"/>
<path d="M120.124 367.913C105.551 367.702 93.5669 379.347 93.3569 393.92L146.13 394.681C146.34 380.107 134.697 368.123 120.124 367.913Z" fill="#E1E1E1"/>
<path d="M103.67 394.068C103.542 402.946 110.634 410.246 119.511 410.374C128.388 410.502 135.69 403.409 135.818 394.532C135.946 385.654 128.852 378.354 119.975 378.226C111.098 378.099 103.798 385.19 103.67 394.068Z" fill="#1A2E35"/>
<path d="M42.5613 406.414C42.4269 406.414 42.3186 354.911 42.3186 291.395C42.3186 227.855 42.4269 176.363 42.5613 176.363C42.6957 176.363 42.8039 227.855 42.8039 291.395C42.8039 354.911 42.6957 406.414 42.5613 406.414Z" fill="#1A2E35"/>
<path d="M51.2346 159.938C51.2346 159.804 155.466 159.694 284.014 159.694C412.605 159.694 516.815 159.804 516.815 159.938C516.815 160.072 412.605 160.181 284.014 160.181C155.466 160.181 51.2346 160.072 51.2346 159.938Z" fill="#1A2E35"/>
<path d="M298.446 331.002C298.311 331.002 298.203 296.848 298.203 254.729C298.203 212.595 298.311 178.45 298.446 178.45C298.58 178.45 298.688 212.595 298.688 254.729C298.688 296.848 298.58 331.002 298.446 331.002Z" fill="#1A2E35"/>
<path d="M415.882 311.408C415.747 311.408 415.638 281.641 415.638 244.932C415.638 208.211 415.747 178.45 415.882 178.45C416.016 178.45 416.125 208.211 416.125 244.932C416.125 281.641 416.016 311.408 415.882 311.408Z" fill="#1A2E35"/>
<path d="M337.543 296.165C337.433 296.088 349.296 278.736 364.038 257.412C378.785 236.082 390.825 218.856 390.935 218.933C391.045 219.009 379.185 236.358 364.438 257.688C349.696 279.013 337.653 296.242 337.543 296.165Z" fill="#1A2E35"/>
<path d="M320.949 304.046C320.84 303.969 333.562 285.994 349.36 263.904C365.164 241.805 378.06 223.962 378.17 224.039C378.279 224.118 365.559 242.089 349.755 264.186C333.957 286.277 321.058 304.125 320.949 304.046Z" fill="#1A2E35"/>
<path d="M429.471 274.338C429.37 274.25 442.87 258.633 459.621 239.461C476.377 220.283 490.039 204.813 490.14 204.902C490.24 204.99 476.743 220.603 459.986 239.782C443.237 258.953 429.572 274.427 429.471 274.338Z" fill="#1A2E35"/>
<path d="M441.95 276.443C441.852 276.351 455.107 261.915 471.552 244.202C488.003 226.482 501.414 212.198 501.512 212.288C501.611 212.38 488.36 226.814 471.909 244.533C455.463 262.246 442.048 276.534 441.95 276.443Z" fill="#1A2E35"/>
<path d="M298.446 330.892V408.878H424.693C422.713 403.923 421.611 398.522 421.611 392.86C421.611 369.004 440.951 349.666 464.806 349.666C488.661 349.666 507.999 369.004 507.999 392.86C507.999 398.522 506.166 404.054 504.185 409.008L522.023 409.081V330.892H298.446Z" fill="#698DF6"/>
<path d="M407.718 382.916H391.96C388.633 382.916 385.937 380.219 385.937 376.893C385.937 373.566 388.633 370.87 391.96 370.87H407.718C411.044 370.87 413.741 373.566 413.741 376.893C413.741 380.219 411.044 382.916 407.718 382.916Z" fill="white"/>
<path d="M407.718 382.916C407.699 382.837 408.738 382.982 410.307 382.22C411.08 381.84 411.942 381.174 412.618 380.154C413.28 379.138 413.711 377.74 413.528 376.216C413.358 374.706 412.496 373.113 411.016 372.098C410.282 371.593 409.398 371.258 408.459 371.136C407.533 371.037 406.483 371.113 405.457 371.093C401.303 371.1 396.746 371.106 391.961 371.113C389.639 371.086 387.496 372.58 386.656 374.586C385.777 376.584 386.154 378.945 387.42 380.495C388.036 381.282 388.848 381.873 389.715 382.252C390.598 382.625 391.509 382.731 392.43 382.714C394.271 382.725 395.989 382.736 397.562 382.744C400.66 382.777 403.186 382.803 404.993 382.822C405.832 382.84 406.504 382.856 407.013 382.867C407.475 382.883 407.718 382.899 407.718 382.916C407.718 382.934 407.475 382.949 407.013 382.965C406.504 382.976 405.832 382.992 404.993 383.011C403.186 383.03 400.66 383.056 397.562 383.088C395.989 383.097 394.271 383.107 392.43 383.118C391.511 383.145 390.487 383.041 389.55 382.646C388.615 382.248 387.738 381.617 387.069 380.773C385.696 379.112 385.273 376.563 386.219 374.395C387.122 372.222 389.443 370.599 391.961 370.627C396.746 370.633 401.303 370.641 405.457 370.646C406.504 370.672 407.484 370.6 408.513 370.712C409.521 370.849 410.465 371.219 411.245 371.767C412.817 372.866 413.712 374.575 413.868 376.177C414.04 377.791 413.559 379.257 412.844 380.305C412.115 381.357 411.199 382.024 410.39 382.39C409.58 382.765 408.888 382.879 408.426 382.92C408.195 382.942 408.016 382.931 407.897 382.933C407.778 382.93 407.718 382.925 407.718 382.916Z" fill="#1A2E35"/>
<path d="M235.027 408.877H171.765V176.755H235.027V408.877Z" fill="#698DF6"/>
<path d="M235.028 408.878C235.028 408.878 235.017 408.479 235.012 407.715C235.008 406.945 235.003 405.81 234.997 404.32C234.989 401.333 234.979 396.927 234.966 391.228C234.95 379.828 234.927 363.255 234.898 342.533C234.872 301.116 234.833 243.117 234.791 176.755L235.028 176.992C214.748 176.994 193.538 176.996 171.779 176.998H171.765L172.008 176.755C171.97 271.476 171.936 355.768 171.915 408.878L171.765 408.728C191.742 408.764 207.54 408.792 218.352 408.811C223.762 408.826 227.923 408.839 230.74 408.847C232.144 408.854 233.21 408.859 233.936 408.863C234.654 408.867 235.028 408.878 235.028 408.878C235.028 408.878 234.674 408.888 233.965 408.893C233.246 408.896 232.187 408.901 230.796 408.909C227.987 408.917 223.836 408.929 218.441 408.944C207.608 408.964 191.78 408.992 171.765 409.027H171.616V408.878C171.595 355.768 171.561 271.476 171.522 176.755V176.512H171.765H171.779C193.538 176.514 214.748 176.516 235.028 176.517H235.265V176.755C235.222 243.184 235.183 301.24 235.156 342.698C235.127 363.397 235.105 379.951 235.089 391.339C235.075 397.016 235.065 401.404 235.058 404.381C235.051 405.857 235.046 406.981 235.043 407.745C235.038 408.501 235.028 408.878 235.028 408.878Z" fill="#1A2E35"/>
<path d="M214.262 330.892H193.272C186.842 330.892 181.63 325.679 181.63 319.248V196.815C181.63 190.385 186.842 185.172 193.272 185.172H214.262C220.692 185.172 225.905 190.385 225.905 196.815V319.248C225.905 325.679 220.692 330.892 214.262 330.892Z" fill="#375A64"/>
<path d="M214.262 330.892C214.262 330.892 214.576 330.859 215.189 330.82C215.798 330.768 216.705 330.631 217.844 330.272C218.976 329.904 220.333 329.252 221.672 328.132C222.974 326.996 224.321 325.405 225.078 323.264C225.481 322.211 225.732 321.029 225.773 319.777C225.823 318.524 225.78 317.19 225.789 315.807C225.783 313.036 225.776 310.026 225.769 306.792C225.759 300.32 225.746 292.954 225.733 284.813C225.718 268.523 225.701 249.133 225.681 227.602C225.678 222.219 225.676 216.703 225.673 211.067C225.672 208.25 225.671 205.402 225.67 202.527C225.669 201.089 225.669 199.644 225.668 198.193C225.687 196.731 225.663 195.306 225.28 193.915C224.562 191.138 222.725 188.64 220.235 187.116C218.996 186.35 217.601 185.824 216.152 185.583C214.711 185.334 213.195 185.435 211.681 185.414C205.631 185.414 199.493 185.415 193.28 185.415C190.23 185.399 187.229 186.672 185.136 188.835C183.018 190.979 181.843 193.957 181.87 196.928C181.87 202.98 181.869 208.943 181.868 214.803C181.863 226.521 181.857 237.824 181.853 248.592C181.833 270.126 181.815 289.518 181.801 305.807C181.795 309.878 181.789 313.756 181.784 317.424C181.787 318.339 181.76 319.25 181.824 320.123C181.879 321.001 182.064 321.85 182.293 322.672C182.807 324.3 183.665 325.755 184.733 326.943C186.873 329.339 189.821 330.582 192.548 330.739C195.303 330.82 197.845 330.773 200.119 330.796C204.664 330.817 208.196 330.833 210.606 330.842C211.796 330.853 212.707 330.862 213.333 330.867C213.947 330.875 214.262 330.892 214.262 330.892C214.262 330.892 213.947 330.908 213.333 330.916C212.707 330.921 211.796 330.93 210.606 330.941C208.196 330.95 204.664 330.966 200.119 330.987C197.839 330.977 195.317 331.037 192.534 330.97C189.752 330.823 186.73 329.569 184.531 327.125C183.434 325.914 182.548 324.426 182.016 322.759C181.776 321.918 181.584 321.047 181.524 320.145C181.457 319.241 181.481 318.342 181.475 317.424C181.469 313.756 181.464 309.878 181.458 305.807C181.442 289.518 181.425 270.127 181.406 248.592C181.401 237.824 181.396 226.521 181.391 214.803C181.39 208.943 181.389 202.98 181.387 196.928C181.357 193.843 182.582 190.727 184.79 188.496C186.969 186.241 190.102 184.912 193.28 184.929C199.493 184.929 205.631 184.929 211.681 184.93C213.187 184.953 214.706 184.846 216.231 185.107C217.742 185.359 219.196 185.909 220.488 186.707C223.082 188.297 224.994 190.899 225.741 193.794C226.14 195.235 226.162 196.759 226.142 198.193C226.141 199.644 226.141 201.089 226.14 202.527C226.139 205.402 226.138 208.25 226.137 211.067C226.134 216.703 226.131 222.219 226.128 227.602C226.109 249.133 226.092 268.523 226.077 284.813C226.064 292.954 226.051 300.32 226.04 306.792C226.033 310.026 226.026 313.036 226.021 315.807C226.005 317.195 226.04 318.514 225.984 319.787C225.935 321.061 225.672 322.262 225.256 323.331C224.472 325.502 223.094 327.105 221.765 328.243C220.399 329.365 219.021 330.01 217.875 330.366C216.721 330.712 215.806 330.834 215.192 330.87C214.576 330.893 214.262 330.892 214.262 330.892Z" fill="#1A2E35"/>
<path d="M298.603 408.878C298.603 408.878 298.592 408.479 298.587 407.715C298.583 406.945 298.578 405.81 298.572 404.32C298.564 401.333 298.554 396.927 298.541 391.228C298.525 379.828 298.502 363.255 298.473 342.533C298.447 301.116 298.408 243.117 298.366 176.755L298.603 176.992C278.323 176.994 257.113 176.996 235.354 176.998H235.34L235.584 176.755C235.545 271.476 235.511 355.768 235.49 408.878L235.34 408.728C255.317 408.764 271.115 408.792 281.927 408.811C287.337 408.826 291.498 408.839 294.315 408.847C295.719 408.854 296.785 408.859 297.511 408.863C298.229 408.867 298.603 408.878 298.603 408.878C298.603 408.878 298.249 408.888 297.54 408.893C296.821 408.896 295.762 408.901 294.371 408.909C291.562 408.917 287.411 408.929 282.016 408.944C271.183 408.964 255.356 408.992 235.34 409.027H235.191V408.878C235.17 355.768 235.136 271.476 235.098 176.755V176.512H235.34H235.354C257.113 176.514 278.323 176.516 298.603 176.517H298.84V176.755C298.797 243.184 298.758 301.24 298.731 342.698C298.702 363.397 298.68 379.951 298.664 391.339C298.65 397.016 298.64 401.404 298.633 404.381C298.626 405.857 298.621 406.981 298.618 407.745C298.613 408.501 298.603 408.878 298.603 408.878Z" fill="#1A2E35"/>
<path d="M278.092 330.892H256.592C250.303 330.892 245.204 325.793 245.204 319.504V196.56C245.204 190.27 250.303 185.172 256.592 185.172H278.092C284.381 185.172 289.48 190.27 289.48 196.56V319.504C289.48 325.793 284.381 330.892 278.092 330.892Z" fill="#375A64"/>
<path d="M278.092 330.892C278.078 330.817 279.389 330.994 281.674 330.255C282.804 329.883 284.163 329.22 285.477 328.066C286.782 326.922 288.064 325.281 288.781 323.127C289.127 322.053 289.365 320.871 289.369 319.614C289.368 318.349 289.366 317.022 289.364 315.635C289.357 312.861 289.351 309.847 289.344 306.608C289.333 300.13 289.321 292.755 289.308 284.603C289.293 268.295 289.275 248.881 289.256 227.323C289.253 221.934 289.251 216.41 289.248 210.768C289.246 207.946 289.245 205.096 289.244 202.217C289.244 200.777 289.243 199.331 289.243 197.879C289.266 196.415 289.234 194.991 288.832 193.601C288.081 190.83 286.187 188.36 283.651 186.907C282.388 186.176 280.974 185.698 279.514 185.514C278.066 185.349 276.532 185.436 275.024 185.414C268.967 185.414 262.821 185.415 256.601 185.415C253.545 185.392 250.55 186.716 248.498 188.915C246.408 191.101 245.344 194.109 245.446 197.096C245.445 203.156 245.444 209.126 245.442 214.992C245.437 226.725 245.433 238.043 245.428 248.823C245.409 270.383 245.391 289.799 245.376 306.107C245.37 310.184 245.365 314.065 245.359 317.738C245.337 319.577 245.325 321.357 245.905 322.983C246.438 324.607 247.321 326.05 248.415 327.216C250.603 329.573 253.61 330.733 256.346 330.763C259.118 330.776 261.651 330.787 263.931 330.796C268.482 330.817 272.019 330.833 274.431 330.842C275.622 330.853 276.535 330.862 277.161 330.867C277.777 330.875 278.092 330.892 278.092 330.892C278.092 330.892 277.777 330.908 277.161 330.916C276.535 330.921 275.622 330.93 274.431 330.941C272.019 330.95 268.482 330.966 263.931 330.987C261.65 330.989 259.115 330.991 256.341 330.994C253.549 330.977 250.468 329.807 248.217 327.403C247.093 326.213 246.181 324.737 245.629 323.074C245.493 322.659 245.397 322.226 245.286 321.795C245.227 321.355 245.128 320.915 245.102 320.463C245.036 319.557 245.054 318.657 245.05 317.738C245.045 314.065 245.038 310.184 245.032 306.107C245.017 289.799 245 270.383 244.98 248.823C244.976 238.043 244.971 226.725 244.966 214.992C244.965 209.126 244.963 203.156 244.962 197.096C244.853 194.028 245.965 190.851 248.145 188.581C250.285 186.287 253.415 184.904 256.601 184.929C262.821 184.929 268.967 184.929 275.024 184.93C276.541 184.955 278.035 184.863 279.575 185.036C281.098 185.228 282.574 185.728 283.891 186.491C286.536 188.008 288.509 190.583 289.291 193.475C289.709 194.913 289.741 196.443 289.717 197.879C289.717 199.331 289.716 200.777 289.716 202.217C289.714 205.096 289.713 207.946 289.712 210.768C289.709 216.41 289.706 221.934 289.704 227.323C289.684 248.881 289.666 268.295 289.651 284.603C289.638 292.755 289.626 300.13 289.616 306.608C289.608 309.847 289.602 312.861 289.595 315.635C289.59 317.023 289.584 318.35 289.579 319.616C289.568 320.896 289.319 322.099 288.96 323.187C288.217 325.375 286.903 327.029 285.571 328.176C284.231 329.333 282.851 329.987 281.705 330.348C280.555 330.711 279.637 330.83 279.023 330.87C278.407 330.893 278.092 330.892 278.092 330.892Z" fill="#1A2E35"/>
<path d="M112.407 263.27C112.296 263.195 120.142 251.33 129.928 236.773C139.718 222.212 147.742 210.472 147.854 210.546C147.965 210.621 140.122 222.483 130.332 237.045C120.545 251.602 112.519 263.344 112.407 263.27Z" fill="#1A2E35"/>
<path d="M97.1641 263.27C97.1575 263.265 97.1949 263.194 97.2761 263.059C97.3741 262.9 97.4945 262.706 97.6438 262.466C97.9975 261.918 98.4829 261.164 99.0979 260.211C100.372 258.261 102.24 255.455 104.589 252.014C109.273 245.127 115.882 235.707 123.226 225.336C130.572 214.962 137.224 205.575 141.979 198.738C144.334 195.341 146.246 192.58 147.596 190.633C148.243 189.701 148.753 188.965 149.126 188.429C149.291 188.201 149.424 188.015 149.533 187.864C149.627 187.738 149.679 187.675 149.686 187.68C149.693 187.684 149.655 187.756 149.574 187.891C149.476 188.049 149.356 188.244 149.207 188.484C148.853 189.031 148.368 189.785 147.754 190.738C146.479 192.688 144.611 195.494 142.262 198.933C137.577 205.822 130.968 215.243 123.622 225.617C116.279 235.988 109.627 245.374 104.872 252.21C102.518 255.608 100.604 258.369 99.2547 260.316C98.6079 261.248 98.0974 261.984 97.725 262.519C97.5598 262.749 97.4254 262.935 97.3171 263.087C97.2229 263.212 97.1715 263.274 97.1641 263.27Z" fill="#1A2E35"/>
<path d="M374.297 369.987C374.297 369.987 374.478 369.956 374.828 370.011C375.173 370.064 375.704 370.215 376.241 370.664C376.769 371.099 377.286 371.896 377.295 372.932C377.301 373.935 377.309 375.088 377.316 376.384C377.336 381.596 377.361 389.106 377.393 398.38C377.399 400.701 377.404 403.134 377.409 405.667C377.536 406.979 376.7 408.439 375.344 408.889C375.013 409.007 374.662 409.07 374.307 409.074L373.305 409.076C372.634 409.078 371.957 409.079 371.275 409.079C365.814 409.087 359.98 409.093 353.842 409.102C341.562 409.107 328.065 409.114 313.897 409.121C312.937 409.124 311.987 408.666 311.403 407.91C311.11 407.535 310.901 407.094 310.797 406.63C310.686 406.152 310.734 405.695 310.724 405.269C310.724 403.52 310.725 401.781 310.725 400.056C310.725 396.605 310.727 393.204 310.728 389.864C310.73 386.523 310.733 383.241 310.734 380.027C310.736 378.419 310.737 376.829 310.738 375.256C310.739 374.471 310.739 373.69 310.74 372.913C310.737 372.075 311.086 371.248 311.679 370.671C312.266 370.088 313.087 369.759 313.902 369.765C314.659 369.766 315.412 369.767 316.159 369.767C317.655 369.769 319.131 369.771 320.585 369.773C323.493 369.777 326.318 369.781 329.049 369.784C334.507 369.795 339.593 369.806 344.238 369.814C353.51 369.848 361.02 369.874 366.232 369.892C368.814 369.911 370.826 369.927 372.212 369.937C372.882 369.948 373.398 369.956 373.767 369.962C374.117 369.969 374.297 369.987 374.297 369.987C374.297 369.987 374.117 370.004 373.767 370.011C373.398 370.017 372.882 370.025 372.212 370.035C370.826 370.046 368.814 370.061 366.232 370.081C361.02 370.099 353.51 370.125 344.238 370.159C339.593 370.167 334.507 370.177 329.049 370.188C326.318 370.192 323.493 370.196 320.585 370.201C319.131 370.201 317.655 370.203 316.159 370.205C315.412 370.206 314.659 370.207 313.902 370.208C313.198 370.205 312.499 370.488 311.995 370.99C311.485 371.486 311.189 372.193 311.192 372.913C311.193 373.69 311.194 374.471 311.195 375.256C311.196 376.829 311.198 378.419 311.199 380.027C311.2 383.241 311.202 386.523 311.204 389.864C311.205 393.204 311.207 396.605 311.208 400.056C311.208 401.781 311.209 403.52 311.209 405.269C311.218 405.715 311.178 406.145 311.272 406.526C311.359 406.919 311.537 407.291 311.785 407.609C312.281 408.251 313.082 408.636 313.897 408.634C328.065 408.642 341.562 408.648 353.842 408.654C359.98 408.662 365.814 408.669 371.275 408.676C371.957 408.677 372.634 408.678 373.305 408.68C373.985 408.667 374.645 408.745 375.212 408.522C376.401 408.117 377.141 406.891 377.035 405.667C377.04 403.134 377.045 400.701 377.05 398.38C377.083 389.106 377.11 381.596 377.127 376.384C377.136 375.088 377.143 373.935 377.15 372.932C377.156 371.944 376.678 371.172 376.177 370.738C375.668 370.291 375.156 370.128 374.819 370.061C374.478 369.99 374.296 370.005 374.297 369.987Z" fill="#1A2E35"/>
<path d="M317.876 408.878C317.742 408.878 317.633 400.186 317.633 389.467C317.633 378.745 317.742 370.055 317.876 370.055C318.01 370.055 318.12 378.745 318.12 389.467C318.12 400.186 318.01 408.878 317.876 408.878Z" fill="#1A2E35"/>
<path d="M325.202 408.878C325.067 408.878 324.958 400.186 324.958 389.467C324.958 378.745 325.067 370.055 325.202 370.055C325.336 370.055 325.444 378.745 325.444 389.467C325.444 400.186 325.336 408.878 325.202 408.878Z" fill="#1A2E35"/>
<path d="M332.527 408.878C332.393 408.878 332.283 400.186 332.283 389.467C332.283 378.745 332.393 370.055 332.527 370.055C332.661 370.055 332.77 378.745 332.77 389.467C332.77 400.186 332.661 408.878 332.527 408.878Z" fill="#1A2E35"/>
<path d="M339.852 408.878C339.718 408.878 339.609 400.186 339.609 389.467C339.609 378.745 339.718 370.055 339.852 370.055C339.987 370.055 340.095 378.745 340.095 389.467C340.095 400.186 339.987 408.878 339.852 408.878Z" fill="#1A2E35"/>
<path d="M347.178 408.878C347.044 408.878 346.935 400.186 346.935 389.467C346.935 378.745 347.044 370.055 347.178 370.055C347.312 370.055 347.421 378.745 347.421 389.467C347.421 400.186 347.312 408.878 347.178 408.878Z" fill="#1A2E35"/>
<path d="M354.503 408.878C354.369 408.878 354.26 400.186 354.26 389.467C354.26 378.745 354.369 370.055 354.503 370.055C354.638 370.055 354.747 378.745 354.747 389.467C354.747 400.186 354.638 408.878 354.503 408.878Z" fill="#1A2E35"/>
<path d="M361.829 408.878C361.694 408.878 361.585 400.186 361.585 389.467C361.585 378.745 361.694 370.055 361.829 370.055C361.963 370.055 362.072 378.745 362.072 389.467C362.072 400.186 361.963 408.878 361.829 408.878Z" fill="#1A2E35"/>
<path d="M369.154 408.878C369.02 408.878 368.911 400.186 368.911 389.467C368.911 378.745 369.02 370.055 369.154 370.055C369.288 370.055 369.398 378.745 369.398 389.467C369.398 400.186 369.288 408.878 369.154 408.878Z" fill="#1A2E35"/>
<path d="M521.342 204.19H298.603V176.124H521.342V204.19Z" fill="#1A2E35"/>
<path d="M171.622 204.19H42.2427V176.124H171.622V204.19Z" fill="#1A2E35"/>
<path d="M668.644 252.25C668.508 252.25 668.4 240.026 668.4 224.952C668.4 209.871 668.508 197.65 668.644 197.65C668.778 197.65 668.886 209.871 668.886 224.952C668.886 240.026 668.778 252.25 668.644 252.25Z" fill="#1A2E35"/>
<path d="M49.0876 349.003C48.9532 349.003 48.845 333.304 48.845 313.941C48.845 294.572 48.9532 278.874 49.0876 278.874C49.222 278.874 49.3312 294.572 49.3312 313.941C49.3312 333.304 49.222 349.003 49.0876 349.003Z" fill="white"/>
<path d="M196.153 265.938C196.267 266.009 195.597 267.286 194.657 268.791C193.717 270.295 192.863 271.456 192.749 271.385C192.635 271.314 193.304 270.038 194.245 268.533C195.185 267.029 196.039 265.867 196.153 265.938Z" fill="white"/>
<path d="M213.852 253C213.866 253.009 213.801 253.152 213.662 253.419C213.493 253.733 213.287 254.114 213.038 254.575C212.489 255.574 211.666 257.003 210.623 258.755C208.539 262.261 205.542 267.033 202.016 272.161C198.487 277.288 195.101 281.796 192.572 284.994C191.31 286.595 190.269 287.875 189.532 288.745C189.192 289.143 188.909 289.47 188.677 289.741C188.477 289.965 188.366 290.079 188.353 290.067C188.34 290.057 188.426 289.924 188.6 289.68C188.813 289.394 189.072 289.046 189.384 288.627C190.119 287.659 191.103 286.361 192.301 284.785C194.756 281.535 198.092 277.005 201.616 271.885C205.135 266.767 208.173 262.032 210.329 258.577C211.374 256.895 212.234 255.51 212.875 254.479C213.155 254.037 213.387 253.671 213.578 253.37C213.743 253.12 213.838 252.992 213.852 253Z" fill="white"/>
<path d="M274.617 234.723C274.731 234.795 270.417 241.873 264.985 250.531C259.549 259.195 255.054 266.156 254.94 266.085C254.826 266.013 259.139 258.935 264.573 250.274C270.007 241.615 274.503 234.652 274.617 234.723Z" fill="white"/>
<path d="M282.192 240.22C282.307 240.29 276.078 250.667 268.281 263.395C260.482 276.129 254.068 286.39 253.954 286.32C253.839 286.25 260.066 275.874 267.866 263.142C275.662 250.414 282.077 240.15 282.192 240.22Z" fill="white"/>
<path d="M175.727 321.769C175.593 321.769 175.484 296.008 175.484 264.239C175.484 232.459 175.593 206.704 175.727 206.704C175.862 206.704 175.97 232.459 175.97 264.239C175.97 296.008 175.862 321.769 175.727 321.769Z" fill="white"/>
<path d="M185.94 166.533C185.94 166.668 155.76 166.776 118.538 166.776C81.305 166.776 51.1304 166.668 51.1304 166.533C51.1304 166.399 81.305 166.291 118.538 166.291C155.76 166.291 185.94 166.399 185.94 166.533Z" fill="white"/>
<path d="M329.601 166.533C329.601 166.668 318.322 166.776 304.41 166.776C290.495 166.776 279.218 166.668 279.218 166.533C279.218 166.399 290.495 166.291 304.41 166.291C318.322 166.291 329.601 166.399 329.601 166.533Z" fill="white"/>
<path d="M305.771 387.131C305.636 387.131 305.528 373.108 305.528 355.812C305.528 338.512 305.636 324.492 305.771 324.492C305.905 324.492 306.014 338.512 306.014 355.812C306.014 373.108 305.905 387.131 305.771 387.131Z" fill="white"/>
<path d="M237.685 397.344C237.551 397.344 237.443 378.595 237.443 355.474C237.443 332.342 237.551 313.598 237.685 313.598C237.82 313.598 237.928 332.342 237.928 355.474C237.928 378.595 237.82 397.344 237.685 397.344Z" fill="white"/>
<path d="M483.475 156.32C483.475 156.455 453.751 156.563 417.094 156.563C380.424 156.563 350.708 156.455 350.708 156.32C350.708 156.186 380.424 156.078 417.094 156.078C453.751 156.078 483.475 156.186 483.475 156.32Z" fill="white"/>
<path d="M628.497 169.938C628.497 170.072 604.718 170.18 575.394 170.18C546.057 170.18 522.283 170.072 522.283 169.938C522.283 169.803 546.057 169.695 575.394 169.695C604.718 169.695 628.497 169.803 628.497 169.938Z" fill="white"/>
<path d="M618.827 408.877H529.037V176.16H618.827V408.877Z" fill="#FAFAFA"/>
<path d="M618.827 408.878C618.827 408.878 618.817 408.485 618.812 407.731C618.808 406.969 618.805 405.848 618.798 404.375C618.791 401.42 618.78 397.06 618.768 391.407C618.753 380.102 618.73 363.634 618.703 342.957C618.676 301.632 618.637 243.483 618.594 176.16L618.827 176.394C590.759 176.397 560.428 176.4 529.051 176.403H529.037L529.279 176.16C529.249 267.865 529.223 350.616 529.205 408.878L529.037 408.71C556.912 408.748 579.34 408.78 594.808 408.801C602.547 408.82 608.543 408.833 612.613 408.842C614.644 408.851 616.192 408.857 617.24 408.86C618.284 408.866 618.827 408.878 618.827 408.878C618.827 408.878 618.307 408.89 617.274 408.895C616.233 408.898 614.694 408.905 612.676 408.913C608.616 408.923 602.632 408.936 594.908 408.954C579.418 408.976 556.955 409.007 529.037 409.046L528.869 409.047V408.878C528.85 350.616 528.823 267.865 528.793 176.16V175.917H529.037H529.051C560.428 175.921 590.759 175.923 618.827 175.927H619.06V176.16C619.015 243.546 618.977 301.752 618.95 343.117C618.923 363.771 618.901 380.22 618.885 391.513C618.873 397.144 618.862 401.488 618.855 404.431C618.849 405.893 618.845 407.005 618.842 407.759C618.836 408.505 618.827 408.878 618.827 408.878Z" fill="#1A2E35"/>
<path d="M654.185 325.816L625.841 325.809V176.364H654.582L654.185 325.816Z" fill="#FAFAFA"/>
<path d="M654.185 325.816C654.185 325.816 654.175 325.552 654.171 325.053C654.168 324.544 654.166 323.807 654.162 322.841C654.159 320.89 654.156 318.029 654.152 314.333C654.155 306.931 654.16 296.195 654.166 282.81C654.209 256.062 654.272 218.732 654.342 176.363L654.582 176.603C645.413 176.604 635.824 176.606 626.05 176.606H625.841L626.083 176.364C626.037 239.256 625.995 294.489 625.971 325.809L625.841 325.678C634.843 325.712 641.913 325.738 646.745 325.757C649.157 325.77 651.009 325.781 652.271 325.789C652.892 325.795 653.364 325.799 653.695 325.802C654.015 325.806 654.185 325.816 654.185 325.816C654.185 325.816 654.033 325.824 653.72 325.829C653.395 325.832 652.929 325.835 652.318 325.841C651.063 325.848 649.222 325.859 646.821 325.872C641.972 325.888 634.876 325.911 625.841 325.941H625.709V325.809C625.686 294.489 625.645 239.256 625.597 176.364V176.12H625.841H626.05C635.824 176.121 645.413 176.122 654.582 176.124H654.823L654.822 176.365C654.667 218.801 654.53 256.189 654.432 282.98C654.367 296.342 654.316 307.058 654.279 314.448C654.255 318.121 654.237 320.965 654.224 322.904C654.215 323.855 654.208 324.583 654.203 325.085C654.196 325.573 654.185 325.816 654.185 325.816Z" fill="#1A2E35"/>
<path d="M606.397 258.313C606.435 258.244 607.293 258.537 609.881 258.63C612.469 258.723 617.229 258.17 617.827 258.215C618.425 258.259 625.325 258.629 625.325 258.629C625.325 258.629 623.731 260.104 622.429 259.935C621.126 259.766 618.605 259.987 618.605 259.987L617.644 259.939L619.739 261.458L619.144 268.258C619.144 268.258 618.581 268.704 618.146 268.082C617.71 267.461 617.949 266.11 617.949 266.11L617.058 269.101C617.058 269.101 616.084 269.475 615.59 268.842C615.095 268.21 615.478 267.369 615.478 267.369L615.226 264.72L613.183 262.574L610.737 263.385L612.034 266.339C612.034 266.339 613.323 268.989 613.036 269.24C612.75 269.493 612.465 270.411 611.731 269.434C610.996 268.457 610.787 267.572 610.006 267.192C609.225 266.811 605.016 264.233 604.294 262.146L606.397 258.313Z" fill="#FFC19D"/>
<path d="M561.676 235.658C561.676 235.658 564.023 236.883 565.134 238.119C566.246 239.354 581.79 249.95 581.79 249.95L600.341 255.276L607.925 258.393L605.578 265.309L598.046 263.579C598.046 263.579 589.277 262.591 583.968 262.097C578.657 261.604 575.695 259.751 575.695 259.751L565.134 253.7L560.752 241.105L561.676 235.658Z" fill="#3F61F1"/>
<path d="M591.666 317.46L580.64 344.208H524.07V317.46L591.173 316.606" fill="#E1E1E1"/>
<path d="M542.352 287.528C542.352 287.528 544.894 296.932 555.107 299.965C565.32 302.996 598.234 301.309 598.234 301.309L603.08 334.749L618.852 332.583C618.852 332.583 611.4 292.905 611.443 290.059C611.51 285.62 609.616 282.478 604.884 282.485C602.035 282.49 570.108 280.654 570.108 280.654L565.134 276.951L543.935 284.813L542.352 287.528Z" fill="#1A2E35"/>
<path d="M590.246 311.408C590.246 311.408 593.866 311.131 593.958 307.531C594.002 305.792 594.004 303.445 593.994 301.48C593.983 299.397 592.291 297.717 590.208 297.717H542.352L538.52 299.756L537.47 305.408L539.409 310.3L590.246 311.408Z" fill="#375A64"/>
<path d="M568.322 205.906C567.369 204.807 566.203 203.758 565.908 202.332C565.636 201.022 566.15 199.551 565.504 198.378C564.71 196.935 562.605 196.741 561.635 195.409C561.167 194.764 561.025 193.927 560.562 193.278C559.771 192.172 558.237 191.873 556.885 192.011C555.534 192.15 554.23 192.629 552.874 192.719C551.014 192.84 549.097 192.225 547.308 192.752C545.335 193.333 544.123 195.072 542.834 196.754L541.155 198.703C540.808 199.038 540.441 199.345 540.037 199.602C539.332 200.054 538.527 200.365 537.92 200.942C536.622 202.176 536.721 204.562 538.116 205.686C536.682 206.137 535.648 207.627 535.729 209.128C535.773 209.953 536.112 210.729 536.357 211.52C536.601 212.31 536.746 213.189 536.414 213.946C536.08 214.703 535.109 215.219 534.39 214.81C534.64 215.881 535.403 216.82 536.4 217.285C536.009 217.683 535.463 217.923 534.907 217.941C536.402 221.489 540.499 223.367 544.349 223.399C548.2 223.432 551.89 221.984 555.467 220.558L565.842 217.896C566.752 217.69 567.135 216.585 567.125 215.651C567.114 214.718 566.88 213.745 567.216 212.873C567.677 211.68 569.07 211.049 569.552 209.862C570.099 208.514 569.275 207.005 568.322 205.906Z" fill="#1A2E35"/>
<path d="M543.766 215.289C543.022 212.944 542.287 210.582 541.958 208.144C541.629 205.706 541.721 203.168 542.594 200.868C542.727 200.52 543.851 198.182 544.221 198.221C544.486 198.25 543.788 200.433 543.921 200.664C545.185 202.871 545.515 205.517 545.293 208.051C545.07 210.585 544.527 212.861 543.766 215.289Z" fill="#1A2E35"/>
<path d="M543.59 205.902C543.433 199.734 546.891 194.502 553.06 194.516L553.632 194.551C559.368 194.899 563.878 199.593 563.992 205.339C564.099 210.685 564.147 216.594 563.939 219.446C563.507 225.351 557.541 225.911 557.541 225.911C557.528 225.911 557.687 235.627 557.687 235.627L543.258 226.548L543.59 205.902Z" fill="#FFC19D"/>
<path d="M557.542 225.911C557.542 225.911 553.804 225.904 549.985 223.17C549.985 223.17 551.585 228.079 557.514 227.905L557.542 225.911Z" fill="#FF9C6A"/>
<path d="M560.652 210.358C560.64 210.805 560.253 211.164 559.786 211.16C559.321 211.157 558.952 210.793 558.963 210.347C558.974 209.9 559.362 209.541 559.827 209.544C560.294 209.547 560.664 209.912 560.652 210.358Z" fill="#1A2E35"/>
<path d="M562.58 207.715C562.469 207.818 561.859 207.307 560.951 207.254C560.043 207.188 559.349 207.615 559.257 207.498C559.213 207.445 559.331 207.254 559.634 207.06C559.932 206.866 560.432 206.692 560.997 206.728C561.563 206.766 562.026 207.003 562.287 207.232C562.553 207.464 562.635 207.669 562.58 207.715Z" fill="#1A2E35"/>
<path d="M552.849 210.04C552.838 210.487 552.451 210.845 551.984 210.842C551.518 210.839 551.15 210.475 551.16 210.029C551.171 209.582 551.558 209.223 552.025 209.226C552.491 209.229 552.86 209.594 552.849 210.04Z" fill="#1A2E35"/>
<path d="M553.663 207.543C553.552 207.646 552.941 207.135 552.033 207.081C551.127 207.016 550.432 207.443 550.34 207.326C550.295 207.274 550.413 207.081 550.717 206.888C551.015 206.694 551.514 206.52 552.08 206.556C552.645 206.593 553.108 206.831 553.369 207.06C553.634 207.291 553.718 207.497 553.663 207.543Z" fill="#1A2E35"/>
<path d="M556.497 214.718C556.496 214.666 557.066 214.602 557.989 214.542C558.222 214.531 558.444 214.499 558.493 214.343C558.558 214.179 558.476 213.923 558.38 213.646C558.196 213.072 558.003 212.47 557.801 211.839C557.001 209.267 556.437 207.158 556.541 207.127C556.645 207.095 557.377 209.154 558.178 211.726C558.369 212.36 558.552 212.964 558.727 213.542C558.799 213.811 558.93 214.119 558.791 214.459C558.718 214.629 558.54 214.744 558.39 214.776C558.238 214.812 558.108 214.807 557.993 214.807C557.069 214.8 556.498 214.769 556.497 214.718Z" fill="#1A2E35"/>
<path d="M553.787 215.184C553.935 215.184 553.878 216.17 554.679 216.921C555.479 217.674 556.535 217.626 556.534 217.765C556.544 217.828 556.29 217.943 555.845 217.928C555.409 217.916 554.782 217.737 554.292 217.278C553.804 216.818 553.617 216.233 553.608 215.826C553.595 215.411 553.72 215.173 553.787 215.184Z" fill="#1A2E35"/>
<path d="M553.837 203.855C553.733 204.097 552.833 203.924 551.759 203.988C550.686 204.03 549.807 204.29 549.679 204.06C549.623 203.95 549.787 203.727 550.149 203.509C550.507 203.291 551.07 203.098 551.715 203.065C552.358 203.034 552.938 203.172 553.316 203.353C553.697 203.534 553.883 203.74 553.837 203.855Z" fill="#1A2E35"/>
<path d="M562.389 204.674C562.216 204.87 561.604 204.618 560.852 204.563C560.103 204.481 559.454 204.617 559.321 204.392C559.263 204.284 559.375 204.083 559.666 203.905C559.952 203.726 560.421 203.596 560.936 203.642C561.453 203.69 561.889 203.905 562.138 204.131C562.391 204.36 562.465 204.577 562.389 204.674Z" fill="#1A2E35"/>
<path d="M543.807 210.307C543.709 210.258 539.82 208.859 539.704 212.907C539.587 216.955 543.674 216.236 543.685 216.121C543.696 216.004 543.807 210.307 543.807 210.307Z" fill="#FFC19D"/>
<path d="M542.492 214.552C542.475 214.539 542.422 214.599 542.3 214.65C542.183 214.7 541.982 214.731 541.773 214.646C541.349 214.477 541.009 213.787 541.01 213.057C541.01 212.689 541.098 212.341 541.236 212.053C541.369 211.761 541.567 211.559 541.782 211.528C541.999 211.484 542.147 211.617 542.194 211.732C542.244 211.848 542.216 211.927 542.238 211.935C542.248 211.946 542.326 211.869 542.298 211.701C542.283 211.621 542.24 211.524 542.146 211.444C542.051 211.362 541.91 211.318 541.76 211.329C541.447 211.342 541.157 211.621 541.005 211.936C540.836 212.252 540.728 212.643 540.728 213.056C540.73 213.873 541.126 214.649 541.707 214.834C541.989 214.917 542.229 214.838 542.355 214.746C542.483 214.649 542.507 214.559 542.492 214.552Z" fill="#FF9C6A"/>
<path d="M561.506 198.58C562.168 198.231 560.244 196.071 558.648 195.309C556.237 194.156 552.534 193.402 550.278 193.994C547.561 194.707 545.29 196.006 543.885 198.438C542.479 200.87 541.914 203.724 541.936 206.533C541.944 207.389 542.015 208.284 542.458 209.018C543.006 209.924 544.079 210.509 544.007 211.743C543.981 212.194 544.101 212.652 544.403 212.987C545.128 213.79 546.048 213.067 546.48 212.333C547.402 210.765 547.538 208.874 547.653 207.059C547.734 205.769 547.812 204.451 547.474 203.204C547.289 202.525 546.983 201.881 546.836 201.193C546.69 200.506 546.726 199.728 547.164 199.178C547.235 199.088 547.351 198.976 547.499 198.852C548.665 197.869 550.276 197.6 551.703 198.137C553.967 198.989 557.836 200.271 558.869 199.517C560.354 198.434 560.718 197.714 560.718 197.714L561.506 198.58Z" fill="#1A2E35"/>
<path d="M550.5 193.449C552.74 192.749 555.272 192.838 557.332 193.959C558.426 194.555 559.406 195.491 559.72 196.697C560.034 197.902 559.492 199.367 558.33 199.813L558.249 199.862C556.51 200.409 555.392 200.156 553.681 199.525C552.243 198.994 550.972 198.075 549.53 197.552C547.997 196.995 546.297 196.911 544.718 197.315C546.3 195.585 548.261 194.149 550.5 193.449Z" fill="#1A2E35"/>
<path d="M542.247 227.343C542.247 227.343 533.78 237.268 533.809 244.201C533.825 247.912 542.352 287.528 542.352 287.528L566.114 278.731C567.604 278.179 568.503 276.656 568.266 275.085L565.134 254.323L561.676 235.658L558.111 233.038L557.837 231.094L557.373 230.155L543.528 224.271L542.247 227.343Z" fill="#3F61F1"/>
<path d="M600.341 274.059L617.735 276.035L619.551 273.131L609.103 270.226L601.702 270.753L600.341 274.059Z" fill="#1A2E35"/>
<path d="M632.522 257.973L628.262 273.13H632.615L638.549 256.557L632.522 257.973Z" fill="#1A2E35"/>
<path d="M603.817 326.482C603.817 326.482 612.245 280.408 613.608 276.951C614.971 273.493 614.769 272.024 620.32 271.532C625.872 271.039 654.186 271.524 654.186 271.524V325.816L618.823 326.34L618.669 344.669L600.294 343.801L603.817 326.482Z" fill="#1A2E35"/>
<path d="M527.22 207.983C527.22 207.983 534.867 208.729 535.987 211.713C536.802 213.885 536.429 222.482 536.168 226.999C536.075 228.577 534.769 229.807 533.189 229.807C533.189 229.807 537.111 233.254 537.481 234.608C537.853 235.962 545.127 279.777 544.38 287.528C543.635 295.278 541.395 299.009 541.395 299.009L527.22 299.756V207.983Z" fill="#375A64"/>
<path d="M545.321 297.993C545.207 297.872 554.705 272.886 556.535 264.789C558.366 256.692 558.094 232.917 558.094 232.917C558.857 232.926 561.401 234.695 562.127 235.658C562.127 235.658 561.806 257.067 560.752 265.308C559.696 273.551 551.551 300.049 551.551 300.049L545.321 297.993Z" fill="#1A2E35"/>
<path d="M545.321 297.993C545.325 297.986 545.466 298.023 545.738 298.104C546.032 298.195 546.431 298.317 546.943 298.475C548.022 298.819 549.576 299.314 551.582 299.954L551.455 300.02C553.026 294.647 555.658 285.948 558.464 274.976C559.141 272.23 559.863 269.341 560.371 266.305C560.842 263.265 561.01 260.047 561.203 256.74C561.55 250.119 561.75 243.079 561.882 235.789C561.883 235.742 561.883 235.696 561.884 235.654L561.933 235.803C561.436 235.198 560.753 234.673 560.096 234.207C559.763 233.974 559.423 233.756 559.081 233.563C558.751 233.377 558.361 233.188 558.092 233.159L558.336 232.914C558.376 242.294 558.249 251.18 557.541 259.207C557.348 261.213 557.102 263.166 556.69 265.037C556.244 266.898 555.699 268.661 555.167 270.363C554.09 273.76 553.01 276.89 552.01 279.735C550.004 285.427 548.311 289.984 547.142 293.127C546.049 296.047 545.527 297.442 545.321 297.993C545.287 297.985 545.42 297.541 545.701 296.706C546 295.849 546.427 294.629 546.972 293.065C548.088 289.903 549.733 285.33 551.696 279.626C552.675 276.775 553.738 273.641 554.793 270.246C555.315 268.547 555.852 266.784 556.284 264.944C556.682 263.102 556.919 261.163 557.105 259.167C557.785 251.17 557.897 242.285 557.852 232.919L557.851 232.646L558.096 232.675C558.612 232.735 558.944 232.945 559.319 233.14C559.681 233.343 560.031 233.569 560.376 233.809C561.061 234.301 561.74 234.807 562.321 235.511L562.372 235.572L562.37 235.662L562.368 235.795C562.236 243.093 562.027 250.135 561.667 256.765C561.467 260.079 561.292 263.296 560.806 266.374C560.282 269.441 559.549 272.326 558.858 275.075C555.999 286.05 553.3 294.728 551.646 300.078L551.616 300.178L551.519 300.145C549.518 299.461 547.968 298.933 546.893 298.565C546.39 298.389 545.999 298.251 545.711 298.149C545.448 298.053 545.315 298.001 545.321 297.993Z" fill="#375A64"/>
<path d="M545.943 298.679C545.943 298.236 554.275 282.891 564.196 279.441L569.681 281.047C569.681 281.047 553.325 292.717 551.551 300.05L545.943 298.679Z" fill="#1A2E35"/>
<path d="M545.943 298.679C545.953 298.67 546.092 298.695 546.35 298.746C546.644 298.809 547.013 298.888 547.466 298.984C548.474 299.212 549.858 299.525 551.583 299.915L551.416 300.017C551.804 298.581 552.622 297.05 553.726 295.481C554.87 293.945 556.26 292.341 557.863 290.718C561.091 287.498 565.068 284.121 569.539 280.849L569.612 281.281C569.554 281.264 569.49 281.245 569.428 281.226C567.612 280.693 565.833 280.171 564.127 279.671L564.274 279.667C560.721 281.009 557.875 283.342 555.595 285.618C553.311 287.918 551.518 290.2 550.099 292.152C547.268 296.07 545.943 298.679 545.943 298.679C545.896 298.688 546.167 297.959 546.815 296.804C547.455 295.63 548.453 293.959 549.843 291.97C551.234 289.985 553.008 287.665 555.296 285.321C557.582 283.004 560.448 280.612 564.116 279.215L564.185 279.188L564.263 279.211C565.969 279.71 567.748 280.229 569.565 280.761C569.627 280.778 569.69 280.797 569.749 280.814L570.222 280.953L569.822 281.245C565.377 284.496 561.396 287.849 558.165 291.021C556.561 292.62 555.169 294.192 554.018 295.695C552.91 297.226 552.089 298.708 551.684 300.082L551.645 300.216L551.518 300.183C549.778 299.727 548.383 299.36 547.367 299.093C546.932 298.972 546.577 298.874 546.292 298.795C546.052 298.726 545.933 298.687 545.943 298.679Z" fill="#375A64"/>
<path d="M541.936 232.917C536.554 235.658 538.537 246.449 540.206 251.086C543.127 259.197 547.706 271.952 550.084 274.148C553.408 277.216 577.188 285.271 577.188 285.271L581.79 276.577L559.507 264.72C559.507 264.72 559.491 262.93 558.596 262.675C557.7 262.419 555.099 245.77 555.099 245.77C555.099 245.77 554.121 239.3 551.82 236.232" fill="#3F61F1"/>
<path d="M551.82 236.232C551.82 236.232 552.323 236.784 552.937 238.033C553.553 239.276 554.248 241.207 554.826 243.748C555.13 245.019 555.333 246.451 555.598 247.997C555.869 249.547 556.162 251.223 556.476 253.018C556.804 254.811 557.16 256.723 557.592 258.729C557.814 259.728 558.037 260.762 558.357 261.777C558.441 262.019 558.531 262.299 558.648 262.468C558.584 262.472 558.833 262.542 558.953 262.644C559.093 262.741 559.192 262.871 559.281 263.001C559.594 263.544 559.677 264.124 559.706 264.718L559.602 264.545C566.113 267.997 573.702 272.021 581.902 276.367L582.111 276.478L582 276.688C580.53 279.47 578.981 282.398 577.402 285.384L577.305 285.567L577.11 285.5C575.737 285.022 574.267 284.512 572.786 283.997C568.259 282.396 563.86 280.773 559.657 279.083C557.555 278.237 555.505 277.364 553.53 276.428C553.041 276.183 552.554 275.939 552.071 275.695C551.601 275.414 551.121 275.173 550.67 274.865L550.006 274.371C549.796 274.193 549.628 273.963 549.44 273.761C549.131 273.318 548.83 272.876 548.58 272.416C547.545 270.586 546.742 268.718 545.971 266.901C545.211 265.08 544.511 263.298 543.851 261.569C542.537 258.109 541.375 254.866 540.319 251.904C539.225 248.939 538.664 246.11 538.428 243.615C538.203 241.119 538.299 238.925 538.775 237.21C539.242 235.502 540.019 234.282 540.762 233.705C540.919 233.529 541.087 233.412 541.244 233.326C541.389 233.236 541.515 233.16 541.623 233.092C541.826 232.968 541.932 232.909 541.935 232.917C541.939 232.925 541.842 232.999 541.649 233.135C541.545 233.206 541.426 233.289 541.288 233.385C541.137 233.476 540.977 233.598 540.829 233.777C540.122 234.366 539.39 235.573 538.959 237.258C538.519 238.948 538.449 241.118 538.699 243.589C538.959 246.059 539.537 248.855 540.642 251.787C541.718 254.742 542.898 257.977 544.227 261.425C544.893 263.149 545.6 264.923 546.365 266.734C547.138 268.539 547.949 270.402 548.967 272.191C549.485 273.088 550.015 273.97 550.925 274.487C551.353 274.776 551.833 275.019 552.287 275.289C552.766 275.529 553.247 275.768 553.732 276.01C555.692 276.934 557.737 277.8 559.834 278.641C564.03 280.32 568.426 281.939 572.948 283.539C574.428 284.053 575.895 284.564 577.266 285.041L576.974 285.157C578.556 282.173 580.107 279.247 581.581 276.465L581.678 276.786C573.492 272.416 565.917 268.37 559.414 264.897L559.312 264.843L559.308 264.722C559.289 264.195 559.197 263.628 558.951 263.207C558.883 263.11 558.812 263.016 558.724 262.957C558.643 262.863 558.567 262.936 558.341 262.701C558.151 262.414 558.091 262.161 557.994 261.895C557.671 260.845 557.455 259.812 557.237 258.805C556.817 256.788 556.473 254.873 556.159 253.075C555.861 251.276 555.582 249.595 555.324 248.042C555.072 246.487 554.888 245.061 554.603 243.797C554.061 241.263 553.406 239.333 552.828 238.083C552.544 237.457 552.285 236.995 552.098 236.695C551.907 236.396 551.82 236.232 551.82 236.232Z" fill="#1A2E35"/>
<path d="M527.22 205.876C527.22 205.876 522.892 206.715 521.819 210.089C520.746 213.462 521.819 317.46 521.819 317.46H591.666C591.666 317.46 592.8 309.469 585.341 307.918C577.882 306.366 552.118 307.441 552.118 307.441C552.118 307.441 543.051 298.613 541.024 296.824C538.996 295.035 538.161 293.658 535.298 294.168C532.435 294.676 530.288 295.035 530.288 295.035V260.204L527.22 251.258V205.876Z" fill="#1A2E35"/>
<path d="M582.048 286.026C582.048 286.026 579.045 287.209 579.317 290.304C579.591 293.398 580.674 295.402 580.674 295.402L585.352 343.311H589.377L584.944 293.666L584.961 287.78L582.048 286.026Z" fill="#1A2E35"/>
<path d="M582.048 286.026C582.049 286.019 582.112 286.049 582.238 286.118C582.384 286.201 582.569 286.303 582.799 286.433C583.323 286.737 584.056 287.163 585.002 287.712L585.04 287.734L585.041 287.78C585.048 289.281 585.06 291.265 585.071 293.666V293.655C586.021 304.023 587.696 322.306 589.618 343.29L589.642 343.555H589.376H587.494H585.352H585.132L585.11 343.335C583.212 323.439 581.548 306.006 580.537 295.415L580.553 295.467C579.804 293.904 579.476 292.397 579.299 291.076C579.215 290.42 579.166 289.786 579.267 289.216C579.376 288.649 579.597 288.164 579.852 287.774C580.371 286.99 580.988 286.581 581.39 286.332C581.597 286.21 581.76 286.131 581.873 286.084C581.984 286.037 582.05 286.019 582.048 286.026C582.047 286.033 581.997 286.06 581.89 286.119C581.784 286.176 581.627 286.266 581.43 286.396C581.045 286.662 580.456 287.084 579.975 287.853C579.739 288.235 579.539 288.703 579.446 289.246C579.36 289.792 579.417 290.394 579.51 291.047C579.704 292.342 580.057 293.842 580.794 295.337L580.808 295.364L580.811 295.388C581.869 305.975 583.608 323.399 585.594 343.288L585.352 343.069H587.494H589.376L589.135 343.333C587.309 322.34 585.718 304.051 584.815 293.677V293.671V293.666C584.842 291.264 584.865 289.281 584.881 287.78L584.92 287.848C584.003 287.276 583.291 286.831 582.783 286.513C582.556 286.368 582.376 286.251 582.234 286.159C582.109 286.078 582.048 286.033 582.048 286.026Z" fill="#375A64"/>
<path d="M557.474 230.385C557.51 230.387 557.54 230.79 557.447 231.498C557.349 232.202 557.109 233.22 556.531 234.338L556.452 234.492L556.284 234.426C554.804 233.845 552.983 233.079 551.047 232.18C548.602 231.049 546.439 229.918 544.898 229.057C543.359 228.194 542.439 227.606 542.471 227.549C542.504 227.488 543.483 227.97 545.059 228.753C546.637 229.534 548.816 230.612 551.252 231.739C553.181 232.634 554.98 233.429 556.434 234.062L556.185 234.15C557.359 232.023 557.362 230.359 557.474 230.385Z" fill="#1A2E35"/>
<path d="M563.287 241.006C563.32 241.003 563.386 241.386 563.477 242.081C563.58 242.877 563.709 243.859 563.861 245.021C564.188 247.501 564.686 250.923 565.265 254.698C565.84 258.419 566.359 261.785 566.758 264.369C566.922 265.53 567.059 266.512 567.171 267.309C567.259 268.004 567.29 268.391 567.258 268.397C567.224 268.402 567.129 268.025 566.985 267.339C566.831 266.55 566.643 265.576 566.419 264.426C565.962 261.962 565.368 258.553 564.784 254.772C564.205 250.992 563.761 247.556 563.521 245.06C563.396 243.812 563.323 242.799 563.288 242.098C563.256 241.397 563.254 241.008 563.287 241.006Z" fill="#1A2E35"/>
<path d="M651.524 252.013L596 276.309C594.997 276.748 593.827 276.291 593.388 275.288L593.214 274.891C592.775 273.887 593.233 272.717 594.236 272.278L649.76 247.983C650.764 247.543 651.933 248.001 652.372 249.004L652.546 249.401C652.985 250.404 652.527 251.573 651.524 252.013Z" fill="#375A64"/>
<path d="M593.546 288.841C593.546 288.292 591.9 282.18 591.353 281.476C590.804 280.771 581.206 278.027 581.252 277.94L578.044 283.653L579.131 284.619C580.417 285.824 582.265 286.679 582.265 286.679L583.126 289.78C583.126 289.78 583.283 291.426 583.361 292.052C583.44 292.679 585.32 292.523 585.32 292.523C585.712 293.07 587.186 292.679 587.186 292.679H588.689C588.062 293.933 589.159 294.168 589.159 294.168L590.882 293.384C593.468 292.992 592.292 291.347 592.292 291.347C592.292 291.347 593.546 289.388 593.546 288.841Z" fill="#FFC19D"/>
<path d="M585.562 292.395C585.42 292.366 585.669 290.834 585.57 288.946C585.486 287.055 585.089 285.554 585.227 285.512C585.343 285.465 585.967 286.955 586.055 288.921C586.157 290.887 585.681 292.431 585.562 292.395Z" fill="#FF9C6A"/>
<path d="M588.357 292.433C588.29 292.403 588.42 292.026 588.505 291.407C588.596 290.79 588.606 289.924 588.443 288.982C588.081 287.103 587.472 285.603 587.633 285.547C587.694 285.525 587.897 285.872 588.161 286.464C588.419 287.057 588.748 287.903 588.921 288.901C589.096 289.897 589.028 290.838 588.842 291.478C588.66 292.122 588.41 292.46 588.357 292.433Z" fill="#FF9C6A"/>
<path d="M588.474 292.741C588.439 292.673 588.875 292.447 589.5 292.031C590.098 291.633 590.933 290.845 590.732 289.736C590.378 287.425 590.177 285.506 590.312 285.49C590.443 285.474 590.855 287.329 591.216 289.681C591.322 290.3 591.126 290.988 590.779 291.413C590.443 291.859 590.028 292.138 589.679 292.325C588.967 292.687 588.498 292.793 588.474 292.741Z" fill="#FF9C6A"/>
<path d="M592.115 291.65C592.055 291.774 591.692 291.716 591.268 291.713C590.845 291.702 590.48 291.745 590.424 291.62C590.364 291.503 590.734 291.217 591.278 291.228C591.821 291.236 592.179 291.536 592.115 291.65Z" fill="#FF9C6A"/>
<path d="M585.198 285.308C585.069 285.262 585.164 284.68 584.835 284.084C584.531 283.476 583.997 283.225 584.032 283.093C584.048 283.033 584.227 283.01 584.488 283.116C584.746 283.22 585.064 283.476 585.265 283.858C585.466 284.239 585.498 284.647 585.437 284.918C585.376 285.194 585.256 285.328 585.198 285.308Z" fill="#FF9C6A"/>
<path d="M587.847 284.394C587.71 284.376 587.665 283.914 587.432 283.427C587.211 282.935 586.888 282.601 586.963 282.485C587.02 282.367 587.581 282.589 587.872 283.223C588.168 283.854 587.975 284.426 587.847 284.394Z" fill="#FF9C6A"/>
<path d="M589.968 284.619C589.829 284.604 589.786 284.046 589.56 283.425C589.345 282.799 589.029 282.338 589.128 282.239C589.211 282.14 589.758 282.52 590.018 283.262C590.282 284.004 590.095 284.642 589.968 284.619Z" fill="#FF9C6A"/>
<path d="M529.037 409.081H522.023V176.364H529.037V409.081Z" fill="#698DF6"/>
<path d="M529.036 409.081C529.036 409.081 529.024 408.666 529.019 407.87C529.015 407.069 529.009 405.891 529.002 404.349C528.994 401.25 528.981 396.697 528.967 390.83C528.95 379.094 528.924 362.114 528.894 341.093C528.868 299.084 528.832 240.942 528.793 176.364L529.036 176.606H522.034H522.022L522.265 176.364C522.174 289.663 522.098 384.538 522.078 409.081L522.022 409.024C524.401 409.04 526.146 409.05 527.306 409.058C528.465 409.067 529.036 409.081 529.036 409.081C529.036 409.081 528.492 409.095 527.34 409.104C526.171 409.112 524.416 409.123 522.022 409.138H521.966V409.081C521.946 384.539 521.87 289.663 521.78 176.364V176.12H522.022H522.034H529.036H529.279V176.364C529.24 241.013 529.205 299.219 529.179 341.275C529.148 362.271 529.123 379.232 529.106 390.954C529.091 396.797 529.078 401.331 529.071 404.415C529.063 405.944 529.057 407.11 529.054 407.904C529.048 408.688 529.036 409.081 529.036 409.081Z" fill="#1A2E35"/>
<path d="M617.54 378.694C617.54 378.828 597.828 378.937 573.517 378.937C549.197 378.937 529.489 378.828 529.489 378.694C529.489 378.56 549.197 378.45 573.517 378.45C597.828 378.45 617.54 378.56 617.54 378.694Z" fill="#1A2E35"/>
<path d="M617.813 395.819C617.813 395.954 598.038 396.063 573.653 396.063C549.258 396.063 529.489 395.954 529.489 395.819C529.489 395.685 549.258 395.576 573.653 395.576C598.038 395.576 617.813 395.685 617.813 395.819Z" fill="#1A2E35"/>
<path d="M618.852 344.208C618.852 344.342 598.724 344.451 573.902 344.451C549.07 344.451 528.948 344.342 528.948 344.208C528.948 344.073 549.07 343.964 573.902 343.964C598.724 343.964 618.852 344.073 618.852 344.208Z" fill="#1A2E35"/>
<path d="M618.019 362.105C618.019 362.24 598.218 362.349 573.797 362.349C549.368 362.349 529.571 362.24 529.571 362.105C529.571 361.971 549.368 361.862 573.797 361.862C598.218 361.862 618.019 361.971 618.019 362.105Z" fill="#1A2E35"/>
<path d="M618.019 271.859C618.021 271.879 617.757 271.936 617.275 272.051C616.823 272.256 616.151 272.595 615.549 273.346C614.329 274.813 613.287 277.469 612.716 280.841C611.432 287.655 609.674 296.991 607.732 307.303C605.732 317.61 603.924 326.938 602.604 333.746C601.933 337.089 601.385 339.81 600.996 341.748C600.802 342.656 600.649 343.379 600.535 343.919C600.424 344.414 600.357 344.673 600.341 344.669C600.325 344.667 600.358 344.401 600.438 343.9C600.531 343.356 600.655 342.627 600.81 341.713C601.162 339.768 601.658 337.037 602.266 333.681C603.55 326.868 605.309 317.533 607.253 307.217C609.249 296.914 611.058 287.59 612.378 280.782C612.999 277.377 614.102 274.7 615.405 273.223C616.048 272.468 616.768 272.136 617.245 271.958C617.496 271.908 617.693 271.888 617.823 271.87C617.952 271.854 618.019 271.851 618.019 271.859Z" fill="#375A64"/>
<path d="M541.658 304.55L545.451 298.468L550.765 299.848L547.745 306.746L541.658 304.55Z" fill="#1A2E35"/>
<path d="M625.841 408.486H618.827V176.363H625.841V408.486Z" fill="#698DF6"/>
<path d="M625.841 408.487C625.841 408.487 625.829 408.071 625.823 407.278C625.819 406.478 625.814 405.304 625.806 403.765C625.798 400.677 625.786 396.134 625.772 390.282C625.753 378.576 625.729 361.639 625.698 340.674C625.672 298.771 625.636 240.778 625.597 176.363L625.841 176.607H618.838H618.827L619.069 176.363C618.978 289.361 618.902 383.988 618.883 408.486L618.827 408.43C621.205 408.445 622.95 408.456 624.111 408.463C625.269 408.472 625.841 408.487 625.841 408.487C625.841 408.487 625.297 408.501 624.144 408.509C622.976 408.517 621.22 408.528 618.827 408.543L618.771 408.544V408.486C618.75 383.988 618.675 289.361 618.584 176.363V176.12H618.827H618.838H625.841H626.083V176.363C626.044 240.849 626.01 298.906 625.983 340.854C625.953 361.796 625.927 378.713 625.91 390.406C625.895 396.233 625.883 400.757 625.875 403.833C625.867 405.356 625.861 406.52 625.858 407.313C625.852 408.095 625.841 408.487 625.841 408.487Z" fill="#1A2E35"/>
<path d="M550.995 301.145L545.427 299.238C544.659 298.976 544.249 298.14 544.514 297.372C544.776 296.605 545.611 296.194 546.38 296.458L551.948 298.364C552.715 298.627 553.124 299.462 552.861 300.231V300.231C552.598 300.999 551.762 301.407 550.995 301.145Z" fill="#698DF6"/>
<path d="M629.179 239.923C629.064 239.854 632.854 233.291 637.642 225.266C642.433 217.237 646.41 210.787 646.525 210.855C646.64 210.924 642.85 217.486 638.06 225.514C633.271 233.54 629.293 239.992 629.179 239.923Z" fill="#1A2E35"/>
<path d="M629.422 228.576C629.395 228.556 629.668 228.132 630.185 227.387C630.754 226.567 631.49 225.505 632.376 224.227C634.22 221.557 636.715 217.834 639.319 213.625C641.92 209.413 644.133 205.514 645.697 202.671C646.442 201.307 647.062 200.173 647.541 199.298C647.978 198.502 648.233 198.069 648.263 198.084C648.294 198.099 648.095 198.561 647.71 199.384C647.327 200.209 646.745 201.388 646 202.833C644.512 205.722 642.339 209.657 639.733 213.88C637.123 218.1 634.575 221.803 632.656 224.426C631.697 225.738 630.904 226.788 630.337 227.499C629.773 228.211 629.448 228.595 629.422 228.576Z" fill="#1A2E35"/>
<path d="M522.023 329.018C521.888 329.018 521.779 294.865 521.779 252.746C521.779 210.612 521.888 176.467 522.023 176.467C522.157 176.467 522.266 210.612 522.266 252.746C522.266 294.865 522.157 329.018 522.023 329.018Z" fill="#698DF6"/>
</g>
<mask id="mask5_88_1091" style="mask-type:luminance" maskUnits="userSpaceOnUse" x="0" y="0" width="700" height="467">
<path d="M0 3.05176e-05H700V466.667H0V3.05176e-05Z" fill="white"/>
</mask>
<g mask="url(#mask5_88_1091)">
<path d="M259.356 389.237C261.345 390.101 262.808 391.94 263.543 393.98C264.277 396.02 264.343 398.249 264.099 400.404C263.626 404.573 261.257 408.782 258.706 412.114C255.195 409.05 254.388 403.704 254.149 400.967C253.77 396.641 255.713 388.593 259.356 389.237Z" fill="#375A64"/>
<path d="M258.948 389.224C258.334 389.224 257.747 389.477 257.197 389.982C254.91 392.075 253.894 397.79 254.172 400.965C254.614 406.023 256.181 409.866 258.703 412.079C262.632 406.942 263.793 402.894 264.076 400.402C264.358 397.909 264.177 395.811 263.521 393.988C262.731 391.792 261.21 390.068 259.349 389.259C259.215 389.236 259.08 389.224 258.948 389.224ZM258.71 412.148L258.691 412.131C256.149 409.912 254.57 406.052 254.125 400.969C253.847 397.785 254.868 392.05 257.164 389.946C257.846 389.323 258.584 389.077 259.36 389.214L259.365 389.216C261.239 390.029 262.77 391.764 263.565 393.972C264.223 395.801 264.406 397.907 264.122 400.406C263.838 402.909 262.672 406.973 258.726 412.128L258.71 412.148Z" fill="#1A2E35"/>
<path d="M262.788 418.994C262.225 416.638 263.206 414.053 265.015 412.441C266.823 410.83 269.351 410.148 271.766 410.333C272.883 410.419 274.089 410.743 274.729 411.664C275.327 412.522 275.26 413.724 274.774 414.651C274.29 415.579 273.45 416.272 272.563 416.83C269.522 418.738 266.227 420.026 262.788 418.994Z" fill="#375A64"/>
<path d="M262.807 418.976C265.715 419.842 268.812 419.155 272.55 416.81C273.622 416.138 274.342 415.427 274.754 414.64C275.28 413.634 275.263 412.47 274.71 411.677C274.176 410.909 273.185 410.465 271.764 410.356C271.501 410.336 271.24 410.326 270.98 410.326C268.709 410.326 266.573 411.084 265.03 412.459C264.129 413.263 263.438 414.295 263.034 415.447C262.62 416.628 262.541 417.847 262.807 418.976ZM265.272 419.384C264.421 419.384 263.594 419.26 262.781 419.017L262.768 419.012L262.765 418.999C262.493 417.86 262.571 416.625 262.99 415.431C263.396 414.273 264.092 413.233 265 412.424C266.728 410.884 269.192 410.113 271.768 410.309C273.204 410.419 274.206 410.87 274.748 411.649C275.311 412.459 275.33 413.641 274.795 414.662C274.38 415.456 273.654 416.172 272.576 416.85C269.863 418.551 267.486 419.384 265.272 419.384Z" fill="#1A2E35"/>
<path d="M258.285 431.777C258.265 431.773 258.312 431.468 258.41 430.922C258.52 430.319 258.663 429.541 258.835 428.607C259.223 426.672 259.722 423.901 261.224 421.211C262.707 418.527 264.784 416.551 266.532 415.57C267.401 415.068 268.161 414.768 268.697 414.612C268.962 414.524 269.178 414.489 269.32 414.454C269.464 414.424 269.54 414.414 269.543 414.423C269.567 414.491 268.327 414.715 266.643 415.754C264.956 416.764 262.949 418.72 261.49 421.358C260.016 423.992 259.487 426.726 259.046 428.65C258.833 429.619 258.66 430.406 258.526 430.946C258.393 431.486 258.305 431.782 258.285 431.777Z" fill="#1A2E35"/>
<path d="M258.418 395.497C258.428 395.497 258.442 395.625 258.461 395.871C258.477 396.148 258.498 396.505 258.524 396.946C258.574 397.879 258.629 399.23 258.683 400.901C258.791 404.241 258.876 408.858 258.855 413.958C258.831 419.061 258.707 423.677 258.57 427.016C258.501 428.687 258.435 430.037 258.377 430.971C258.347 431.41 258.323 431.767 258.304 432.044C258.283 432.29 258.268 432.418 258.258 432.418C258.247 432.417 258.242 432.288 258.243 432.041C258.247 431.763 258.252 431.408 258.259 430.965C258.282 429.994 258.315 428.651 258.355 427.011C258.437 423.67 258.528 419.056 258.55 413.957C258.572 408.86 258.52 404.246 258.468 400.905C258.442 399.264 258.421 397.922 258.406 396.95C258.403 396.507 258.401 396.151 258.399 395.873C258.401 395.627 258.408 395.498 258.418 395.497Z" fill="#1A2E35"/>
<path d="M256.713 421.532C255.914 416.488 252.515 411.927 247.909 409.721C246.736 409.159 245.203 408.792 244.239 409.664C243.273 410.539 243.49 412.107 243.962 413.321C245.929 418.372 251.21 421.939 256.63 421.875" fill="#375A64"/>
<path d="M256.49 421.9C253.908 421.9 251.25 421.064 248.988 419.536C246.686 417.982 244.894 415.776 243.941 413.329C243.644 412.567 243.078 410.683 244.224 409.647C244.687 409.229 245.783 408.678 247.919 409.7C250.183 410.785 252.202 412.461 253.758 414.548C255.314 416.636 256.344 419.049 256.737 421.529L256.69 421.536C256.299 419.064 255.272 416.658 253.72 414.576C252.169 412.495 250.156 410.823 247.899 409.742C245.788 408.73 244.71 409.271 244.255 409.682C243.88 410.02 243.105 411.053 243.985 413.313C244.934 415.751 246.72 417.948 249.014 419.497C251.268 421.019 253.917 421.852 256.49 421.852C256.537 421.852 256.584 421.852 256.63 421.851L256.63 421.899C256.584 421.899 256.537 421.9 256.49 421.9Z" fill="#1A2E35"/>
<path d="M248.478 413.676C248.487 413.656 248.75 413.773 249.223 414C249.46 414.112 249.749 414.251 250.064 414.448C250.38 414.645 250.761 414.838 251.136 415.121C251.519 415.392 251.946 415.679 252.362 416.044C252.798 416.383 253.223 416.795 253.667 417.23C254.531 418.121 255.402 419.184 256.146 420.415C256.879 421.652 257.409 422.921 257.779 424.108C257.947 424.707 258.108 425.276 258.193 425.823C258.311 426.363 258.355 426.878 258.403 427.344C258.468 427.81 258.446 428.237 258.462 428.608C258.478 428.98 258.454 429.3 258.434 429.562C258.394 430.084 258.364 430.371 258.343 430.369C258.274 430.366 258.393 429.21 258.189 427.366C258.128 426.907 258.072 426.402 257.945 425.872C257.851 425.335 257.683 424.779 257.512 424.192C257.133 423.029 256.605 421.786 255.886 420.571C255.155 419.363 254.306 418.313 253.466 417.425C253.034 416.992 252.624 416.58 252.2 416.237C251.798 415.869 251.383 415.575 251.013 415.297C249.504 414.215 248.447 413.734 248.478 413.676Z" fill="#1A2E35"/>
</g>
<path d="M360.14 431.941H354.673V238.689H360.14V431.941Z" fill="#E1E1E1"/>
<mask id="mask6_88_1091" style="mask-type:luminance" maskUnits="userSpaceOnUse" x="0" y="0" width="700" height="467">
<path d="M0 3.05176e-05H700V466.667H0V3.05176e-05Z" fill="white"/>
</mask>
<g mask="url(#mask6_88_1091)">
<path d="M360.14 431.941C360.14 431.941 360.127 431.594 360.122 430.932C360.118 430.262 360.113 429.284 360.105 428.005C360.097 425.428 360.085 421.644 360.071 416.77C360.052 407.018 360.028 392.913 359.996 375.455C359.971 340.568 359.935 292.29 359.896 238.689L360.14 238.932H354.681H354.673L354.916 238.689C354.916 333.04 354.835 412.012 354.727 431.941L354.673 431.886C356.515 431.901 357.873 431.911 358.783 431.919C359.688 431.928 360.14 431.941 360.14 431.941C360.14 431.941 359.714 431.955 358.813 431.965C357.898 431.971 356.529 431.982 354.673 431.996L354.618 431.997V431.941C354.511 412.012 354.429 333.04 354.429 238.689V238.446H354.673H354.681H360.14H360.382V238.689C360.343 292.361 360.309 340.702 360.282 375.637C360.252 393.07 360.226 407.155 360.209 416.894C360.194 421.743 360.182 425.507 360.174 428.072C360.166 429.337 360.16 430.304 360.157 430.967C360.151 431.617 360.14 431.941 360.14 431.941Z" fill="#1A2E35"/>
<path d="M378.872 243.653H333.667C331.638 243.653 329.992 242.008 329.992 239.978V185.465C329.992 183.435 331.638 181.791 333.667 181.791H378.872C380.902 181.791 382.547 183.435 382.547 185.465V239.978C382.547 242.008 380.902 243.653 378.872 243.653Z" fill="white"/>
<path d="M378.872 243.653C378.871 243.635 379.069 243.647 379.439 243.579C379.807 243.512 380.367 243.366 380.963 242.936C381.553 242.518 382.175 241.774 382.395 240.726C382.51 240.209 382.456 239.623 382.463 238.998C382.46 238.373 382.457 237.709 382.452 237.005C382.433 231.357 382.407 223.215 382.375 213.161C382.366 208.126 382.356 202.613 382.346 196.695C382.342 193.736 382.337 190.674 382.334 187.522C382.325 186.742 382.348 185.921 382.315 185.16C382.245 184.412 381.933 183.678 381.408 183.123C380.892 182.561 380.18 182.173 379.417 182.06C379.044 181.994 378.638 182.017 378.218 182.014L376.974 182.015C363.662 182.02 349.03 182.027 333.672 182.034C332.772 182.031 331.886 182.397 331.252 183.028C330.615 183.653 330.241 184.531 330.238 185.419C330.236 187.315 330.235 189.198 330.234 191.067C330.232 194.808 330.231 198.494 330.23 202.116C330.225 209.359 330.221 216.347 330.216 223.003C330.212 226.33 330.209 229.576 330.206 232.729C330.203 234.306 330.202 235.859 330.2 237.389C330.199 238.153 330.198 238.912 330.197 239.665C330.167 240.408 330.302 241.102 330.661 241.715C331.01 242.318 331.541 242.817 332.163 243.109C332.791 243.431 333.457 243.478 334.183 243.458C335.61 243.461 337.012 243.464 338.386 243.466C341.132 243.471 343.77 243.477 346.286 243.48C356.341 243.514 364.483 243.54 370.13 243.558C372.931 243.578 375.112 243.594 376.612 243.604C377.34 243.615 377.9 243.622 378.298 243.629C378.678 243.636 378.872 243.653 378.872 243.653C378.872 243.653 378.678 243.67 378.298 243.677C377.9 243.683 377.34 243.691 376.612 243.703C375.112 243.712 372.931 243.728 370.13 243.748C364.483 243.766 356.341 243.792 346.286 243.825C343.77 243.83 341.132 243.835 338.386 243.841C337.012 243.843 335.61 243.845 334.183 243.848C333.491 243.872 332.668 243.822 331.991 243.466C331.296 243.141 330.704 242.589 330.313 241.916C329.91 241.25 329.755 240.422 329.787 239.665C329.786 238.912 329.785 238.153 329.784 237.389C329.782 235.859 329.78 234.306 329.778 232.729C329.775 229.576 329.772 226.33 329.768 223.003C329.764 216.347 329.759 209.359 329.754 202.116C329.753 198.494 329.751 194.808 329.75 191.067C329.75 189.196 329.751 187.311 329.752 185.413C329.756 184.401 330.184 183.394 330.911 182.682C331.631 181.962 332.648 181.544 333.672 181.547C349.03 181.555 363.662 181.561 376.974 181.567L378.218 181.568C378.624 181.572 379.047 181.548 379.486 181.622C380.349 181.753 381.15 182.192 381.73 182.826C382.319 183.452 382.67 184.28 382.746 185.122C382.78 185.959 382.754 186.725 382.76 187.522C382.756 190.674 382.752 193.736 382.748 196.695C382.738 202.613 382.728 208.126 382.718 213.161C382.686 223.215 382.66 231.357 382.642 237.005C382.638 237.709 382.634 238.373 382.63 238.998C382.614 239.616 382.664 240.211 382.537 240.756C382.292 241.844 381.634 242.6 381.02 243.017C380.398 243.444 379.822 243.577 379.448 243.629C379.069 243.679 378.872 243.653 378.872 243.653Z" fill="#1A2E35"/>
<path d="M370.192 231.51H343.409C342.662 231.51 342.057 230.905 342.057 230.157V195.54C342.057 194.793 342.662 194.188 343.409 194.188H370.192C370.939 194.188 371.544 194.793 371.544 195.54V230.157C371.544 230.905 370.939 231.51 370.192 231.51Z" fill="#698DF6" stroke="#698DF6" stroke-width="1.33333"/>
<path d="M342.59 212.225H341.674C340.688 212.225 339.889 211.426 339.889 210.441V203.157C339.889 202.172 340.688 201.373 341.674 201.373H342.59C343.575 201.373 344.374 202.172 344.374 203.157V210.441C344.374 211.426 343.575 212.225 342.59 212.225Z" fill="#698DF6"/>
<path d="M372.077 212.225H371.161C370.176 212.225 369.376 211.426 369.376 210.441V203.157C369.376 202.172 370.176 201.373 371.161 201.373H372.077C373.062 201.373 373.86 202.172 373.86 203.157V210.441C373.86 211.426 373.062 212.225 372.077 212.225Z" fill="#698DF6"/>
<path d="M368.045 215.44H345.557V201.373H368.045V215.44Z" fill="white"/>
<path d="M368.032 221.489C368.032 223.111 366.717 224.427 365.094 224.427C363.471 224.427 362.156 223.111 362.156 221.489C362.156 219.866 363.471 218.551 365.094 218.551C366.717 218.551 368.032 219.866 368.032 221.489Z" fill="white"/>
<path d="M351.57 221.489C351.57 223.111 350.254 224.427 348.632 224.427C347.009 224.427 345.694 223.111 345.694 221.489C345.694 219.866 347.009 218.551 348.632 218.551C350.254 218.551 351.57 219.866 351.57 221.489Z" fill="white"/>
<path d="M347.232 235.599H346.16C345.006 235.599 344.071 234.664 344.071 233.511V227.49H349.321V233.511C349.321 234.664 348.386 235.599 347.232 235.599Z" fill="#698DF6"/>
<path d="M366.647 235.599H365.575C364.421 235.599 363.486 234.664 363.486 233.511V227.49H368.736V233.511C368.736 234.664 367.801 235.599 366.647 235.599Z" fill="#698DF6"/>
<path d="M362.465 198.517H351.136V197.267H362.465V198.517Z" fill="white"/>
</g>
</svg>
