<svg width="40" height="40" viewBox="0 0 40 40" fill="none" xmlns="http://www.w3.org/2000/svg">
<circle cx="20" cy="20" r="20" fill="#FDEA6B"/>
<mask id="mask0_113_149" style="mask-type:luminance" maskUnits="userSpaceOnUse" x="0" y="0" width="40" height="40">
<circle cx="20" cy="20" r="20" fill="white"/>
</mask>
<g mask="url(#mask0_113_149)">
<path fill-rule="evenodd" clip-rule="evenodd" d="M33.069 47.8328C32.897 46.8639 32.7392 45.8924 32.5959 44.9187C32.5279 44.4565 32.4615 43.9938 32.4018 43.5304C32.36 43.2057 32.2964 42.8344 32.5179 42.594C32.8297 42.2555 33.1128 41.9658 33.151 41.481C33.1869 41.0248 33.0322 40.5275 32.9355 40.0847C32.7326 39.1561 32.4801 38.239 32.2011 37.3306C31.9176 36.4077 31.6067 35.4934 31.2914 34.5809C30.9966 33.7278 30.7132 32.8669 30.3293 32.0484C29.6006 30.495 28.3678 29.3446 26.8442 28.5764C26.4653 28.3854 25.6924 27.7035 25.2966 27.5508C24.9326 27.4104 24.9339 27.8203 24.5758 27.6659C24.2894 27.5425 24.0228 27.3779 23.8625 27.1022C23.6884 26.8028 23.2519 26.3842 23.1854 26.0357C23.0446 25.2972 23.1971 24.6686 22.6685 24.1127C22.1992 23.6191 21.5684 23.2809 20.9157 23.0994C19.4799 22.7001 17.5651 22.9793 16.6989 24.3096C16.2851 24.9449 16.1405 25.7129 15.5822 26.2314C15.0947 26.6841 15.2038 26.9936 14.5724 27.2269C14.5366 27.2402 13.5673 27.0329 13.5315 27.0461C12.8408 26.8987 12.1806 27.3113 11.5469 27.5508C10.6021 27.9077 9.70261 28.3722 8.85755 28.9243C7.15356 30.0376 5.69411 31.4832 4.49092 33.1191C3.27777 34.7684 2.3365 36.6171 1.66628 38.5493C1.50352 39.0186 1.35732 39.4936 1.22836 39.9733C1.15618 40.2417 1.07904 40.5202 1.16694 40.795C1.23882 41.0198 1.39872 41.1873 1.5865 41.3222C1.84104 41.505 2.35161 41.6239 2.34166 41.9918C2.33406 42.2714 2.23892 42.5657 2.19247 42.8421C2.13719 43.1712 2.09178 43.5023 2.04636 43.8329C1.83976 45.3375 1.67896 46.8506 1.60784 48.3681C1.53784 49.8622 1.47974 51.3868 1.58368 52.8805C1.59055 52.979 1.62001 53.0694 1.66752 53.1458C1.62317 53.1627 1.61975 53.2451 1.67495 53.2568C1.71362 53.265 1.75221 53.2731 1.79088 53.2813C1.87122 53.3419 1.9714 53.3791 2.0867 53.3827C2.16486 53.3852 2.24297 53.3887 2.32104 53.3927C3.14493 53.5644 3.96869 53.7266 4.80334 53.8495C5.81791 53.9988 6.83546 54.1205 7.85618 54.2195C9.95357 54.4228 12.0344 54.3554 14.1346 54.2458C16.2315 54.1363 18.3272 54.1107 20.4263 54.1652C22.5272 54.2197 24.6274 54.3108 26.7288 54.3481C29.0765 54.3897 31.4206 54.3258 33.7615 54.1397C34.0825 54.1142 34.2811 53.8596 34.2178 53.5417C33.8385 51.6373 33.4087 49.7455 33.069 47.8328Z" fill="#D08B5B"/>
<path fill-rule="evenodd" clip-rule="evenodd" d="M11.5469 27.5508L11.5927 27.5332C12.2124 27.2918 12.8574 26.9023 13.5315 27.0462C13.5554 27.0373 13.994 27.1265 14.2945 27.183L14.0093 27.4798L13.506 27.5764C15.2422 30.4336 17.2956 31.8623 19.6663 31.8623C22.0369 31.8623 23.8358 30.4336 25.0629 27.5764L25.2303 27.5302C25.251 27.535 25.273 27.5417 25.2966 27.5508C25.6925 27.7035 26.4653 28.3854 26.8442 28.5765C28.3678 29.3446 29.6006 30.495 30.3293 32.0484C30.7004 32.8397 30.9776 33.6705 31.262 34.4956L31.2914 34.581C31.6067 35.4935 31.9176 36.4077 32.2011 37.3307C32.468 38.1996 32.7106 39.0764 32.9087 39.9637L32.9355 40.0847C33.0322 40.5275 33.1869 41.0248 33.151 41.481C33.1374 41.6537 33.0927 41.8017 33.0267 41.9359L29.5928 43.168L31.2287 54.2941C29.7302 54.3582 28.2302 54.3747 26.7288 54.3481C24.6274 54.3108 22.5272 54.2197 20.4263 54.1652C18.3908 54.1124 16.3585 54.1349 14.3252 54.2361L13.8089 54.2624C11.8191 54.3616 9.84508 54.4123 7.85618 54.2195L7.72065 54.2062V54.2062L7.72063 52.5787L8.41927 43.5163L4.87867 42.8517L1.40308 41.1684C1.29807 41.0638 1.2138 40.9416 1.16694 40.795C1.08553 40.5405 1.14569 40.2828 1.21236 40.0329L1.22836 39.9733C1.35732 39.4937 1.50352 39.0186 1.66628 38.5493C2.3365 36.6172 3.27777 34.7685 4.49092 33.1191C5.69412 31.4832 7.15356 30.0376 8.85755 28.9243C9.70261 28.3722 10.6021 27.9077 11.5469 27.5508Z" fill="#EC7495"/>
<path fill-rule="evenodd" clip-rule="evenodd" d="M12.8765 26.9993C13.0936 26.9899 13.315 27.0249 13.5316 27.0462C13.5504 27.048 13.5576 27.077 13.5363 27.0815C13.1487 27.1622 12.7653 27.2727 12.3846 27.3849L12.2216 27.433C11.7923 27.5596 11.3756 27.6902 10.9601 27.8591C10.1318 28.1957 9.3451 28.6501 8.6211 29.172C5.83317 31.182 3.81539 34.2251 2.54206 37.3757C2.19626 38.2314 1.90326 39.1083 1.66592 40C1.60821 40.2169 1.55391 40.4347 1.50243 40.6532C1.48732 40.7173 1.42146 40.8813 1.45757 40.9469C1.4895 41.0048 1.61363 41.0406 1.6713 41.0707L1.866 41.1714C2.24577 41.3666 2.87838 41.6874 2.94182 41.7186L3.04075 41.7672C4.65902 42.5583 6.38812 43.2291 8.20918 43.2755L8.22343 43.1205V43.1205C8.30462 42.2632 8.41117 41.4013 8.64372 40.5704C8.65623 40.5257 8.71322 40.5408 8.71842 40.5805C8.84798 41.5642 8.80657 42.5555 8.76137 43.5438C8.68133 45.2941 8.57504 47.0435 8.48057 48.7932C8.43328 49.6684 8.37215 50.5431 8.31696 51.4179C8.26168 52.2944 8.24379 53.192 8.11757 54.0613C8.08944 54.255 7.86184 54.3604 7.68947 54.34C7.49875 54.3174 7.35203 54.1499 7.35114 53.9579C7.34883 53.4514 7.41265 52.939 7.44812 52.4339C7.4818 51.9539 7.51796 51.4742 7.55501 50.9945C7.69041 49.2438 7.84617 47.4951 7.99024 45.7452C8.04129 45.1245 8.09644 44.5044 8.15321 43.8843C6.22409 43.8223 4.42183 43.1098 2.70252 42.2773C2.67763 42.8407 2.61753 43.4031 2.55935 43.9642C2.39693 45.53 2.25371 47.0952 2.14653 48.6658C2.0924 49.4591 2.053 50.2533 2.01868 51.0477C2.00182 51.4381 1.98808 51.8286 1.97753 52.2192C1.974 52.3494 1.97082 52.4796 1.968 52.6098L1.96213 52.9081C1.95733 53.0971 1.93806 53.2722 1.77857 53.4098C1.61658 53.5495 1.39777 53.557 1.23744 53.4098C1.02281 53.2127 1.06076 52.9442 1.06712 52.6796C1.07241 52.4563 1.07877 52.2331 1.08616 52.0099C1.10097 51.5636 1.11988 51.1173 1.14289 50.6713C1.2234 49.1119 1.38426 47.5587 1.59449 46.0118L1.67656 45.4147C1.82982 44.3046 1.99807 43.1693 2.34066 42.0999C2.20727 42.0337 2.07426 41.9671 1.94176 41.9002C1.70673 41.7816 1.46372 41.6702 1.23526 41.5392C1.05401 41.4353 0.897698 41.2928 0.847243 41.0825C0.790972 40.8482 0.877018 40.5919 0.934182 40.3633L0.939146 40.3433C0.995193 40.1131 1.05555 39.8839 1.11924 39.6557C1.37749 38.7304 1.69683 37.8231 2.07055 36.938C2.81884 35.166 3.7847 33.4825 4.96451 31.9603C6.0265 30.5902 7.28105 29.3477 8.75142 28.4157C9.47026 27.9601 10.2363 27.586 11.0464 27.3215C11.4251 27.1979 11.8371 27.0904 12.2336 27.0461C12.4475 27.0223 12.6616 27.0086 12.8765 26.9993ZM16.7231 24.1914C16.9811 23.9151 17.4937 24.201 17.3698 24.5668C17.0784 25.4274 16.6144 26.2124 15.8903 26.7779C15.2096 27.3095 14.3979 27.6548 13.5238 27.5811C13.5171 27.5805 13.5112 27.5788 13.5061 27.5764L13.5814 27.6783C14.1728 28.476 14.7967 29.2627 15.5487 29.9147C17.0808 31.2431 19.1669 31.9597 21.1813 31.45C22.7661 31.049 24.1624 29.7993 24.573 28.2067C24.5142 28.233 24.4442 28.242 24.3674 28.2254C24.0389 28.1542 23.7136 27.8097 23.5017 27.5626C23.2725 27.2954 23.0934 27.0068 22.9622 26.6806C22.7221 26.0836 22.6451 25.3149 22.973 24.7366C23.0134 24.6653 23.1068 24.7052 23.1147 24.7748L23.1272 24.8835C23.1904 25.4254 23.2691 25.9497 23.5254 26.4438C23.6508 26.6856 23.8012 26.9216 23.9842 27.124C24.0821 27.2324 24.1883 27.3359 24.3029 27.4267C24.4146 27.5152 24.5497 27.5792 24.6498 27.6808L24.6682 27.7002L24.6687 27.6968C24.694 27.4822 24.8449 27.3877 24.9926 27.3936C25.1354 27.3993 25.3033 27.462 25.3683 27.492L25.3744 27.4949C26.3712 27.9721 27.2893 28.594 28.1533 29.284C29.9399 30.7109 31.2786 32.5763 31.9272 34.773C32.2456 35.8511 32.4283 36.962 32.6211 38.0677L32.7398 38.7452C32.9198 39.7659 33.1208 40.8068 33.5271 41.7563C33.6322 42.002 33.5512 42.2323 33.2935 42.3289C32.9717 42.4495 32.6488 42.5663 32.3253 42.6817C32.4841 43.3611 32.581 44.0641 32.7 44.7469C32.9529 46.1984 33.2629 47.6405 33.5287 49.09C33.6645 49.8311 33.7871 50.5747 33.9229 51.3159C33.9882 51.6729 34.0564 52.0293 34.1228 52.3861C34.1585 52.5785 34.1909 52.7715 34.225 52.9641L34.2309 52.9961C34.2505 53.0977 34.275 53.2028 34.247 53.3045C34.215 53.4205 34.1242 53.5025 34.0432 53.5856C33.9764 53.6541 33.88 53.6546 33.7983 53.6172L33.7714 53.6048C33.6254 53.5367 33.511 53.4688 33.4592 53.3045C33.4264 53.2006 33.4146 53.0834 33.3932 52.9763C33.3521 52.7709 33.3131 52.5653 33.2763 52.3591C33.2027 51.9465 33.1308 51.5336 33.0606 51.1204L32.9951 50.7335C32.7701 49.4 32.5565 48.0583 32.4485 46.7107C32.4006 46.1129 32.3498 45.5156 32.2985 44.9181L32.2601 44.47C32.2114 43.9029 32.1519 43.3213 32.1435 42.7465L31.9501 42.815V42.815L31.0063 43.1477V43.1477C30.7723 43.2301 30.4743 43.3991 30.2225 43.3684C30.0992 43.3533 30.0052 43.3146 29.9326 43.2443C30.0195 44.4673 30.1372 45.6882 30.294 46.9028C30.4366 48.0081 30.5948 49.1118 30.7816 50.2105C30.8741 50.7546 30.9691 51.2981 31.0724 51.8402C31.124 52.1113 31.1773 52.382 31.2322 52.6525C31.2595 52.7874 31.2921 52.9225 31.3135 53.0585C31.3379 53.2143 31.2948 53.3102 31.2075 53.4383C31.1359 53.5436 30.9925 53.5976 30.8763 53.525C30.7223 53.4287 30.642 53.3452 30.5967 53.1698C30.5556 53.0105 30.5306 52.8442 30.4987 52.6828C30.44 52.3849 30.3831 52.0867 30.3283 51.7881C30.2136 51.1636 30.1079 50.5376 30.0134 49.9096C29.6807 47.6976 29.4696 45.4671 29.3629 43.2329C29.3103 42.1306 29.294 41.0273 29.3034 39.9239C29.3082 39.3583 29.3267 38.7911 29.3668 38.2269C29.4075 37.6558 29.492 37.0961 29.5675 36.5305C29.5701 36.5106 29.5983 36.5094 29.5995 36.5305C29.6352 37.1646 29.6912 37.798 29.7186 38.4338C29.7449 39.0405 29.7563 39.6481 29.7772 40.255C29.8045 41.0527 29.8425 41.8509 29.8927 42.6486C29.9837 42.5494 30.1208 42.4922 30.258 42.5145C30.4567 42.4729 30.6707 42.369 30.8602 42.3058L31.5745 42.0679V42.0679C31.95 41.9428 32.3255 41.8186 32.7023 41.6982C32.3654 40.568 32.1346 39.4209 31.9375 38.2571L31.8497 37.7337C31.6757 36.7035 31.4881 35.6727 31.173 34.6751C30.8417 33.6262 30.3459 32.6511 29.6883 31.768C29.04 30.8976 28.2513 30.1313 27.4392 29.4145C26.744 28.8009 26.0002 28.2469 25.2911 27.6501C25.2986 27.6897 25.3001 27.7332 25.2936 27.7811C25.1429 28.8814 24.5672 29.906 23.765 30.6681C22.1534 32.1992 19.7678 32.5169 17.7051 31.7989C15.7098 31.1044 13.9457 29.4596 13.3225 27.4243C13.3118 27.3895 13.3586 27.3757 13.3774 27.4013C13.4119 27.4485 13.4467 27.4958 13.4815 27.543C13.4791 27.5242 13.4889 27.5038 13.5121 27.4949C14.2393 27.2149 14.9534 26.8178 15.4985 26.2561C15.7642 25.9823 15.9961 25.672 16.1791 25.3375C16.2668 25.1772 16.3455 25.0113 16.4084 24.8398L16.4244 24.7954C16.5005 24.5806 16.5641 24.3615 16.7231 24.1914Z" fill="black"/>
<path fill-rule="evenodd" clip-rule="evenodd" d="M26.5543 15.132C26.4531 13.8234 26.6099 12.4518 26.105 11.208C25.2246 9.14426 22.7559 8.45616 20.842 7.67046C20.0753 7.44408 17.4953 7.41243 16.5975 7.11281C14.5657 6.43468 14.0802 5.62669 12.4657 6.91788C12.1932 7.13845 12.0227 7.37817 11.8983 7.70571L11.9034 7.70711C11.8679 7.84366 11.906 7.97991 11.986 8.08398C11.286 8.79897 10.9931 9.87092 11.3522 10.8227C12.5244 13.2995 12.4692 14.6387 12.0916 17.3014C11.5984 19.7871 12.7254 20.6952 14.5918 22.0477C14.5158 22.1949 14.5 22.3906 14.5991 22.5205C16.7573 25.551 20.8267 26.998 24.3133 25.4598C25.7285 24.8304 26.3604 23.3243 26.721 21.9653C27.141 20.4437 27.2701 18.8403 26.9281 17.2903C26.7902 16.5734 26.6105 15.8617 26.5543 15.132Z" fill="#D08B5B"/>
<path fill-rule="evenodd" clip-rule="evenodd" d="M11.0963 11.4198L12.3795 12.2741L16.9731 7.43503L15.4445 6.23279C15.4445 6.23279 12.6711 8.28092 12.1259 8.82147C11.5806 9.36202 11.0963 11.4198 11.0963 11.4198Z" fill="#9FD8E5"/>
<path fill-rule="evenodd" clip-rule="evenodd" d="M14.1052 0.633684C14.3672 0.594375 14.565 0.75679 14.6592 0.98571L14.6641 0.998036C14.6943 1.07593 14.728 1.15169 14.7642 1.22618C15.4198 0.90482 16.3552 0.987395 16.7701 1.63821C17.0661 2.10301 16.8855 2.65465 16.7739 3.14754L16.7006 3.47231C16.8422 3.56237 16.949 3.72364 16.944 3.89063L16.9434 3.90349L16.9136 4.35638C17.0082 4.26061 17.0946 4.15632 17.1717 4.04523C17.225 3.94776 17.2825 3.85199 17.3443 3.7592C17.7076 3.21309 18.5233 3.68769 18.2234 4.27252C18.1659 4.38532 18.1012 4.49216 18.0318 4.59516C17.9534 4.74712 17.8891 4.90333 17.8396 5.0638C17.9815 5.12552 18.0905 5.26257 18.102 5.46944C18.1289 5.95255 17.875 6.35563 17.4712 6.60889C17.3523 6.68338 17.2297 6.69785 17.1185 6.67018C17.0989 6.69657 17.0793 6.72296 17.0606 6.74978C17.2216 6.88045 17.3668 7.02943 17.4916 7.19458C17.8673 7.13839 18.2452 7.112 18.623 7.11115C19.0847 6.88513 19.6376 6.88982 20.1339 6.97452C20.4534 7.029 20.76 7.13499 21.0744 7.21118C21.4058 7.2912 21.7423 7.29418 22.0775 7.34866C22.5001 7.41719 22.8707 7.61214 23.1037 7.92328C23.3597 7.93094 23.6289 8.03565 23.8521 8.17782C24.3718 8.50897 24.8885 8.8448 25.4069 9.17808C25.6058 9.30604 25.6802 9.5103 25.6436 9.73813L25.6411 9.75271L25.6237 9.8472L25.6647 9.90536C25.8233 10.1292 25.996 10.3637 26.0986 10.6108C26.2886 10.8845 26.4603 11.1714 26.6123 11.4672C26.8172 11.8648 26.9863 12.2861 27.1009 12.7186C27.1295 12.828 27.158 12.9382 27.1767 13.0498C27.2036 13.2072 27.1623 13.3294 27.1397 13.4805C27.1116 13.672 27.1013 13.8661 27.0715 14.0581C27.0515 14.1854 26.9433 14.2479 26.83 14.2513C26.8726 14.5753 26.9033 14.9013 26.9327 15.2248C26.974 15.687 27.0021 16.1506 27.0264 16.6141C27.1516 16.7959 27.4076 16.9397 27.5925 16.9895C27.8485 17.0581 28.1168 16.9836 28.3588 16.8963C28.5109 16.8414 28.6357 17.0325 28.5615 17.1602C28.3285 17.5612 27.8302 17.5595 27.4528 17.382C27.293 17.3071 27.1529 17.1985 27.049 17.0572C27.0553 17.1917 27.0622 17.3262 27.069 17.4611L27.0753 17.5834C27.1521 19.0106 27.3177 20.487 27.0494 21.9002C26.5847 24.3481 24.5574 26.212 22.081 26.3567C20.7814 26.4326 19.6993 26.0491 19.1611 25.8351C18.623 25.6212 18.8321 25.1849 19.2057 25.3096C19.8493 25.5245 21.0315 25.8445 22.0895 25.7063C24.5831 25.3806 26.6975 24.1352 26.4803 18.7713C26.4495 18.0106 26.3546 17.2496 26.3342 16.489C26.3146 15.7454 26.3218 15.0013 26.289 14.2582L26.2781 14.0046C26.2653 13.7083 26.2516 13.4107 26.2294 13.114C26.2026 12.9991 26.1804 12.8825 26.1476 12.7697C26.0586 12.4628 25.9423 12.1644 25.7979 11.8797C25.766 11.9039 25.7302 11.9214 25.6914 11.9282C25.3971 11.981 25.121 11.9661 24.8454 11.8435C24.7168 11.7869 24.6035 11.7115 24.4979 11.6183C24.4476 11.5745 24.414 11.5319 24.3875 11.4876C24.2542 11.4898 24.1209 11.4498 24.0374 11.354C23.9422 11.2448 23.9263 11.1321 23.9636 11.0277L23.9675 11.0173L23.9582 11.0139C23.8457 11.3046 23.6217 11.5604 23.3759 11.7332C22.9874 12.0073 22.5014 12.0865 22.0354 12.0938C21.5208 12.1014 20.9781 12.0222 20.4704 11.9414C20.3362 11.9201 20.2029 11.8958 20.0721 11.8631C20.067 11.8682 20.0619 11.8741 20.0564 11.8792C19.6206 12.2959 19.0076 12.4032 18.4547 12.1653C18.1353 12.0278 17.8673 11.8064 17.6305 11.5528C17.6271 11.6856 17.6203 11.8184 17.6088 11.9499L17.604 12.0021C17.5804 12.2471 17.5351 12.5069 17.3498 12.6837C17.0503 12.9702 16.6159 12.8552 16.2704 12.6688C16.2708 12.6777 16.2708 12.6871 16.2708 12.6965C16.3641 13.0131 16.4578 13.3303 16.5515 13.6474L16.5717 13.7149C16.6399 13.9401 16.7146 14.1655 16.7351 14.4012C16.7743 14.8515 16.4744 15.2963 15.9735 15.1452C15.7107 15.0662 15.5002 14.8455 15.2983 14.6686L15.171 14.5587C15.5003 15.6343 15.7286 16.7482 15.7499 17.8706C15.7512 17.9315 15.6988 17.9774 15.6408 17.9796C15.5054 17.9851 15.3597 17.9583 15.2234 17.9042C15.2157 17.9038 15.2081 17.9034 15.2 17.9021C14.9674 17.8685 14.7514 17.7846 14.561 17.6608C14.6049 17.8 14.6245 17.9494 14.613 18.1056C14.61 18.1434 14.5508 18.1566 14.5423 18.1149C14.4324 17.5748 13.7998 17.1666 13.2546 17.27C12.6693 17.3811 12.2382 17.8842 12.1326 18.4567C12.0193 19.0718 12.2361 19.783 12.6378 20.2576C12.8227 20.4764 13.0659 20.659 13.3547 20.705C13.4867 20.7258 13.6239 20.7186 13.7521 20.6811C13.8066 20.665 13.8578 20.6424 13.9097 20.6211C13.9855 20.5905 14.0741 20.5858 14.1457 20.5534C14.308 20.4807 14.4711 20.6301 14.3889 20.7965C14.3174 20.9416 14.253 21.0395 14.1342 21.1145C14.2305 21.2319 14.3178 21.3954 14.3502 21.4392C14.5154 21.6623 14.6833 21.8729 14.8715 22.0768C15.0632 22.2837 15.2724 22.4727 15.4934 22.6476L15.5864 22.721C15.7993 22.8898 15.9847 23.0461 16.1349 23.2882C16.2534 23.4793 16.1 23.7386 15.8781 23.7356C15.1838 23.7258 14.679 23.1163 14.3195 22.5838C14.2684 22.5076 14.2202 22.4271 14.1755 22.3446C14.1593 22.3705 14.1414 22.3948 14.1214 22.4169L14.161 22.5233C14.2786 22.8366 13.7721 23.0413 13.6252 22.7489C13.5183 22.537 13.3943 22.3352 13.2563 22.1445C13.1749 22.133 13.0953 22.0836 13.051 22.0198C12.939 21.8576 12.8133 21.6938 12.7072 21.5209C12.6484 21.4652 12.588 21.4116 12.5262 21.3592C12.5083 21.3749 12.49 21.3907 12.4725 21.4073C12.395 21.5839 12.2992 21.7453 12.1803 21.8972L12.1548 21.9296C11.9272 22.2164 11.6306 22.5098 11.2636 22.5799C11.1516 22.6012 11.0438 22.462 11.1431 22.3731C11.3999 22.1424 11.7037 21.9853 11.9405 21.7278C12.0572 21.6009 12.1643 21.4612 12.2564 21.3148L12.2774 21.2809C12.2928 21.2558 12.3085 21.2307 12.3247 21.2051C12.2178 21.1323 12.1109 21.0591 12.004 20.9859C11.7096 21.2372 11.3264 21.3521 11.0008 21.5602L10.9684 21.5814C10.6741 21.778 10.364 21.343 10.6 21.1042C10.8601 20.842 11.0773 20.5293 11.3077 20.2378C11.1994 20.0383 11.1481 19.8025 11.1289 19.5641C11.1213 19.4967 11.1154 19.4292 11.1094 19.3616C10.9442 19.3642 10.778 19.3076 10.6375 19.2101L10.5842 19.1722C10.4134 19.2267 10.2341 19.2531 10.0624 19.2484C9.65862 19.2365 9.49334 18.7755 9.74594 18.484C10.0036 18.186 10.4547 18.1209 10.8121 18.2656C10.8236 18.2596 10.8356 18.2533 10.8471 18.2469C10.83 18.1686 10.8338 18.0975 10.8532 18.0351L10.8476 17.9971C10.769 17.8766 10.7173 17.739 10.6977 17.5936C10.6822 17.4785 10.6854 17.3644 10.712 17.2507C10.7209 17.2129 10.7393 17.1737 10.7534 17.1342C10.7244 17.0609 10.7073 16.9851 10.702 16.9089C10.6939 16.8993 10.6858 16.8894 10.6781 16.8786C10.5008 16.6299 10.5366 16.3301 10.7054 16.1287C10.7061 16.1159 10.7073 16.1031 10.7091 16.0904C10.6992 16.0682 10.6901 16.0457 10.6819 16.0231C10.517 15.8568 10.3959 15.6568 10.4185 15.409C10.4317 15.2631 10.4917 15.1319 10.5825 15.0338C10.5664 14.9862 10.5649 14.9311 10.5844 14.885C10.4395 14.5 10.4578 14.0363 10.5621 13.6056C10.5391 13.5401 10.5272 13.469 10.5297 13.3937C10.5416 13.074 10.8185 12.7803 11.1465 12.7841C11.186 12.7845 11.223 12.7896 11.2585 12.7972L11.259 12.7896C11.2715 12.6936 11.2979 12.605 11.3365 12.5254C11.3175 12.5185 11.3 12.5087 11.2846 12.4956C11.0744 12.6077 10.852 12.6933 10.6189 12.7517C10.4474 12.7946 10.2718 12.5998 10.3784 12.439C10.4278 12.3644 10.4824 12.2974 10.5412 12.2362C10.4576 12.2367 10.3727 12.2423 10.2869 12.2534C10.1327 12.2734 9.96062 12.1682 9.86052 12.0261C9.73614 12.147 9.61133 12.2674 9.48653 12.3879C9.17046 12.6939 8.69296 12.4687 8.64312 12.0652C8.54898 12.0401 8.46124 11.9976 8.38414 11.9367C7.88576 12.1529 7.34947 12.2717 6.80126 12.2942C6.40767 12.3104 6.17765 11.8524 6.36167 11.5289C6.4852 11.3118 6.63854 11.1169 6.81532 10.9475C6.541 11.0313 6.25773 11.0918 5.9685 11.1305C5.81218 11.1514 5.5911 11.022 5.52849 10.8785C5.2891 10.3269 5.30954 9.75185 5.58514 9.21512C5.59579 9.19383 5.60771 9.1734 5.61922 9.15297C5.64776 9.08189 5.67885 9.01166 5.7125 8.9427C5.37344 8.58942 5.34404 8.06417 5.52678 7.62448C5.45352 7.50572 5.4254 7.36271 5.47524 7.23331C5.61709 6.86087 5.82155 6.51695 6.07968 6.22155C6.05498 6.17388 6.03325 6.12323 6.01493 6.06875C5.86968 5.6282 6.03794 5.09657 6.37743 4.78968C6.59084 4.59644 6.83619 4.48066 7.09816 4.4066C7.20848 4.21166 7.35033 4.03587 7.5156 3.88774C7.52199 3.87369 7.52838 3.85965 7.53562 3.8456C7.7929 3.36122 8.26146 3.10157 8.76367 3.04156C8.78326 2.85215 8.91105 2.67125 9.09677 2.61251C9.14789 2.44863 9.22413 2.292 9.32892 2.14983C9.49377 1.92594 9.76766 1.82038 10.0258 1.96723C10.1672 2.04768 10.3027 2.14004 10.4296 2.2422C10.4866 2.21548 10.5513 2.19819 10.6242 2.19268L10.6426 2.19155L11.0626 2.17026C11.2385 2.09237 11.414 2.01065 11.5899 1.93105C11.6956 1.84379 11.8136 1.77101 11.9422 1.71695C12.0879 1.65608 12.237 1.62161 12.3865 1.61011C12.5079 1.57053 12.6301 1.53563 12.7545 1.50838C13.0467 1.44454 13.3526 1.40878 13.6558 1.41176C13.6621 1.33332 13.6651 1.25394 13.6645 1.17363L13.6639 1.13339C13.6571 0.875876 13.8629 0.67029 14.1052 0.633684ZM13.8109 21.237C13.7692 21.246 13.727 21.2532 13.6848 21.2583C13.6976 21.2898 13.7104 21.3213 13.7227 21.3528C13.7568 21.372 13.7913 21.3903 13.8258 21.4073C13.8156 21.3494 13.8096 21.2911 13.8109 21.237ZM11.6224 20.5872L11.5941 20.6393C11.5895 20.6478 11.585 20.6563 11.5806 20.6645C11.6406 20.6599 11.7011 20.6611 11.7607 20.6679L11.7606 20.6616C11.7529 20.659 11.7452 20.6566 11.7379 20.6531C11.6968 20.6333 11.6585 20.6112 11.6224 20.5872ZM12.8052 18.2099C13.1821 18.2318 13.5013 18.2895 13.8441 18.4543L13.8735 18.4686C14.1764 18.6189 14.6773 18.8964 14.6351 19.2944C14.6232 19.4076 14.541 19.5268 14.4115 19.5179C14.0567 19.4936 13.8539 19.1361 13.6137 18.913C13.3713 18.6883 13.0736 18.4572 12.7801 18.3026C12.7386 18.2809 12.7549 18.212 12.8001 18.2098L12.8052 18.2099ZM11.0962 12.9663C11.0059 12.9693 11.0362 13.057 11.0826 12.9838C11.0864 12.9778 11.0911 12.9719 11.0962 12.9663ZM15.9708 7.11277C15.1155 7.13524 14.2548 7.63985 13.6141 8.1499C13.0567 8.59363 12.5754 9.12143 12.1493 9.69031C12.0396 9.97362 11.9455 10.2628 11.866 10.5542C11.8136 10.7466 11.7808 10.9411 11.7369 11.1352L11.7233 11.1947C11.6888 11.2591 11.6632 11.3283 11.6445 11.3999C11.7222 11.4777 11.8229 11.5334 11.9339 11.5598C11.9696 11.5683 11.9993 11.5868 12.0227 11.6112C12.112 11.4623 12.1901 11.3052 12.2355 11.1386L12.2371 11.1309C12.4088 10.85 12.5952 10.5778 12.795 10.315C13.3462 9.58926 13.9532 8.92781 14.6828 8.37745C15.2362 7.96031 15.8547 7.63342 16.5123 7.42102C16.3514 7.29124 16.1686 7.18858 15.9708 7.11277Z" fill="black"/>
<path fill-rule="evenodd" clip-rule="evenodd" d="M22.6667 22.9285C22.3797 22.8118 22.1237 22.6171 21.9365 22.3684C21.8714 22.2819 21.8546 22.1906 21.8682 22.1071C21.8836 22.0132 21.9393 21.9281 22.0153 21.871C22.0915 21.8137 22.1868 21.7855 22.279 21.7999C22.3591 21.8124 22.4388 21.8561 22.5019 21.9468L22.5151 21.9649C22.6264 22.115 22.7714 22.2382 22.9366 22.3176C23.0959 22.3941 23.274 22.4298 23.4583 22.4091C23.8094 22.3695 24.0513 22.1802 24.3085 21.9232C24.3404 21.8907 24.3723 21.8572 24.4043 21.8232C24.4246 21.7924 24.4526 21.7726 24.4838 21.7622C24.5185 21.7506 24.5576 21.7513 24.5935 21.7638C24.6281 21.7758 24.6591 21.7986 24.6798 21.829C24.6995 21.8579 24.7107 21.8935 24.7071 21.9345C24.6835 22.201 24.5438 22.4387 24.3454 22.6254C24.1251 22.8328 23.8329 22.9762 23.5579 23.0265C23.255 23.0819 22.9462 23.0422 22.6667 22.9285V22.9285ZM23.7009 18.8185C24.0232 19.0139 24.5144 19.4695 24.1676 19.9538C23.7594 20.3809 23.1717 19.8912 22.8821 19.6698C22.6136 19.4981 22.3119 19.9396 22.561 20.14C24.6537 21.6848 25.5029 18.8696 23.8639 18.5888C23.6834 18.5579 23.6164 18.7581 23.7009 18.8185ZM19.9508 17.0214C19.9864 16.5806 20.6597 16.4805 20.7267 16.9167C20.7867 17.3074 20.7161 17.6664 20.5396 18.0182C20.3709 18.3543 19.947 18.1975 19.915 17.8914C19.872 17.4812 19.9287 17.2956 19.9508 17.0214ZM25.0759 16.8263C25.1698 16.7037 25.3053 16.62 25.4677 16.6673C25.975 16.8151 25.8255 17.5333 25.6473 17.8829C25.5505 18.0727 25.2376 18.1209 25.0961 17.9537C24.8656 17.6811 24.7552 17.1368 25.0483 16.8683C25.0562 16.8544 25.0651 16.8404 25.0759 16.8263ZM20.5324 15.0926L20.6126 15.0786C20.8605 15.0358 21.1687 14.9947 21.3441 15.1935C21.4371 15.2989 21.4691 15.4948 21.3441 15.5956C21.1242 15.7731 20.881 15.7043 20.6175 15.7194C20.4003 15.7318 20.1916 15.7676 19.9824 15.8273C19.5234 15.9581 19.1494 16.1969 18.7574 16.4591C18.706 16.4934 18.6535 16.4279 18.678 16.3799C18.9043 15.9379 19.3428 15.5749 19.7821 15.3536C20.0165 15.2355 20.2731 15.1375 20.5324 15.0926ZM24.6134 14.8946L24.6748 14.9071C25.3423 15.0462 26.2095 15.3241 26.5256 15.9779C26.5376 16.0704 26.5249 16.0902 26.5146 16.1031L26.5111 16.1074C26.5026 16.1185 26.4958 16.1337 26.4556 16.1463C26.4445 16.1437 26.4332 16.1408 26.4218 16.1379C26.2769 16.1 26.1623 16.0478 26.0513 15.9937L25.931 15.9346C25.7914 15.8664 25.6505 15.8006 25.5013 15.752C25.1827 15.6484 24.8551 15.5754 24.5224 15.5365C24.4503 15.528 24.3808 15.5038 24.326 15.4622C24.274 15.4227 24.2343 15.368 24.2162 15.2954C24.1927 15.2014 24.1995 15.1302 24.2501 15.0453C24.2881 14.9816 24.3426 14.9375 24.4051 14.9121C24.4688 14.8863 24.5413 14.8802 24.6134 14.8946Z" fill="black"/>
</g>
</svg>
