<svg width="94" height="45" viewBox="0 0 94 45" fill="none" xmlns="http://www.w3.org/2000/svg">
<path d="M51.952 16.872H47.504L46.768 19H44.416L48.432 7.816H51.04L55.056 19H52.688L51.952 16.872ZM51.344 15.08L49.728 10.408L48.112 15.08H51.344ZM64.7971 14.376C64.7971 14.696 64.7758 14.984 64.7331 15.24H58.2531C58.3065 15.88 58.5305 16.3813 58.9251 16.744C59.3198 17.1067 59.8051 17.288 60.3811 17.288C61.2131 17.288 61.8051 16.9307 62.1571 16.216H64.5731C64.3171 17.0693 63.8265 17.7733 63.1011 18.328C62.3758 18.872 61.4851 19.144 60.4291 19.144C59.5758 19.144 58.8078 18.9573 58.1251 18.584C57.4531 18.2 56.9251 17.6613 56.5411 16.968C56.1678 16.2747 55.9811 15.4747 55.9811 14.568C55.9811 13.6507 56.1678 12.8453 56.5411 12.152C56.9145 11.4587 57.4371 10.9253 58.1091 10.552C58.7811 10.1787 59.5545 9.992 60.4291 9.992C61.2718 9.992 62.0238 10.1733 62.6851 10.536C63.3571 10.8987 63.8745 11.416 64.2371 12.088C64.6105 12.7493 64.7971 13.512 64.7971 14.376ZM62.4771 13.736C62.4665 13.16 62.2585 12.7013 61.8531 12.36C61.4478 12.008 60.9518 11.832 60.3651 11.832C59.8105 11.832 59.3411 12.0027 58.9571 12.344C58.5838 12.6747 58.3545 13.1387 58.2691 13.736H62.4771ZM71.4241 10.008C72.0961 10.008 72.6935 10.1573 73.2161 10.456C73.7388 10.744 74.1441 11.176 74.4321 11.752C74.7308 12.3173 74.8801 13 74.8801 13.8V19H72.6401V14.104C72.6401 13.4 72.4641 12.8613 72.1121 12.488C71.7601 12.104 71.2801 11.912 70.6721 11.912C70.0535 11.912 69.5628 12.104 69.2001 12.488C68.8481 12.8613 68.6721 13.4 68.6721 14.104V19H66.4321V7.16H68.6721V11.24C68.9601 10.856 69.3441 10.5573 69.8241 10.344C70.3041 10.12 70.8375 10.008 71.4241 10.008ZM56.112 25.008C57.2 25.008 58.0747 25.344 58.736 26.016C59.408 26.6773 59.744 27.6053 59.744 28.8V34H57.504V29.104C57.504 28.4107 57.328 27.8827 56.976 27.52C56.624 27.1467 56.144 26.96 55.536 26.96C54.928 26.96 54.4427 27.1467 54.08 27.52C53.728 27.8827 53.552 28.4107 53.552 29.104V34H51.312V29.104C51.312 28.4107 51.136 27.8827 50.784 27.52C50.432 27.1467 49.952 26.96 49.344 26.96C48.7253 26.96 48.2347 27.1467 47.872 27.52C47.52 27.8827 47.344 28.4107 47.344 29.104V34H45.104V25.136H47.344V26.208C47.632 25.8347 48 25.5413 48.448 25.328C48.9067 25.1147 49.408 25.008 49.952 25.008C50.6453 25.008 51.264 25.1573 51.808 25.456C52.352 25.744 52.7733 26.16 53.072 26.704C53.36 26.192 53.776 25.7813 54.32 25.472C54.8747 25.1627 55.472 25.008 56.112 25.008ZM65.8056 34.144C64.9523 34.144 64.1843 33.9573 63.5016 33.584C62.819 33.2 62.2803 32.6613 61.8856 31.968C61.5016 31.2747 61.3096 30.4747 61.3096 29.568C61.3096 28.6613 61.507 27.8613 61.9016 27.168C62.307 26.4747 62.8563 25.9413 63.5496 25.568C64.243 25.184 65.0163 24.992 65.8696 24.992C66.723 24.992 67.4963 25.184 68.1896 25.568C68.883 25.9413 69.427 26.4747 69.8216 27.168C70.227 27.8613 70.4296 28.6613 70.4296 29.568C70.4296 30.4747 70.2216 31.2747 69.8056 31.968C69.4003 32.6613 68.8456 33.2 68.1416 33.584C67.4483 33.9573 66.6696 34.144 65.8056 34.144ZM65.8056 32.192C66.211 32.192 66.5896 32.096 66.9416 31.904C67.3043 31.7013 67.5923 31.4027 67.8056 31.008C68.019 30.6133 68.1256 30.1333 68.1256 29.568C68.1256 28.7253 67.9016 28.08 67.4536 27.632C67.0163 27.1733 66.4776 26.944 65.8376 26.944C65.1976 26.944 64.659 27.1733 64.2216 27.632C63.795 28.08 63.5816 28.7253 63.5816 29.568C63.5816 30.4107 63.7896 31.0613 64.2056 31.52C64.6323 31.968 65.1656 32.192 65.8056 32.192ZM74.6808 26.976V31.264C74.6808 31.5627 74.7501 31.7813 74.8888 31.92C75.0381 32.048 75.2834 32.112 75.6248 32.112H76.6648V34H75.2568C73.3688 34 72.4248 33.0827 72.4248 31.248V26.976H71.3688V25.136H72.4248V22.944H74.6808V25.136H76.6648V26.976H74.6808ZM82.2119 34.144C81.3585 34.144 80.5905 33.9573 79.9079 33.584C79.2252 33.2 78.6865 32.6613 78.2919 31.968C77.9079 31.2747 77.7159 30.4747 77.7159 29.568C77.7159 28.6613 77.9132 27.8613 78.3079 27.168C78.7132 26.4747 79.2625 25.9413 79.9559 25.568C80.6492 25.184 81.4225 24.992 82.2759 24.992C83.1292 24.992 83.9025 25.184 84.5959 25.568C85.2892 25.9413 85.8332 26.4747 86.2279 27.168C86.6332 27.8613 86.8359 28.6613 86.8359 29.568C86.8359 30.4747 86.6279 31.2747 86.2119 31.968C85.8065 32.6613 85.2519 33.2 84.5479 33.584C83.8545 33.9573 83.0759 34.144 82.2119 34.144ZM82.2119 32.192C82.6172 32.192 82.9959 32.096 83.3479 31.904C83.7105 31.7013 83.9985 31.4027 84.2119 31.008C84.4252 30.6133 84.5319 30.1333 84.5319 29.568C84.5319 28.7253 84.3079 28.08 83.8599 27.632C83.4225 27.1733 82.8839 26.944 82.2439 26.944C81.6039 26.944 81.0652 27.1733 80.6279 27.632C80.2012 28.08 79.9879 28.7253 79.9879 29.568C79.9879 30.4107 80.1959 31.0613 80.6119 31.52C81.0385 31.968 81.5719 32.192 82.2119 32.192ZM90.719 26.512C91.007 26.0427 91.3803 25.6747 91.839 25.408C92.3083 25.1413 92.8417 25.008 93.439 25.008V27.36H92.847C92.143 27.36 91.6097 27.5253 91.247 27.856C90.895 28.1867 90.719 28.7627 90.719 29.584V34H88.479V25.136H90.719V26.512Z" fill="#EFF1F3"/>
<path d="M38.6719 7.00713C38.6719 4.62432 37.6562 2.35869 34.6875 1.65557C25.0781 -0.61006 14.8047 -0.492873 5.15625 1.65557C2.8125 2.20244 1.17188 4.23369 1.17188 6.6165C1.17188 7.28057 1.67969 7.78838 2.34375 7.78838C3.00781 7.78838 3.51562 7.28057 3.51562 6.6165C3.51562 5.32744 4.41406 4.23369 5.66406 3.96025C11.6016 2.63213 17.7344 2.16338 23.8281 2.51494V4.66338C23.8281 5.32744 23.3203 5.83525 22.6562 5.83525H17.1875C16.5234 5.83525 16.0156 6.34307 16.0156 7.00713C16.0156 7.67119 16.5234 8.179 17.1875 8.179H19.9219H25H32.4219H37.5C38.1641 8.179 38.6719 7.67119 38.6719 7.00713Z" fill="#EFF1F3"/>
<path d="M37.5 10.1321C36.8359 10.1321 36.3281 10.6399 36.3281 11.304V17.554C36.3281 18.2181 36.8359 18.7259 37.5 18.7259C38.1641 18.7259 38.6719 18.2181 38.6719 17.554V11.304C38.6719 10.6399 38.1641 10.1321 37.5 10.1321Z" fill="#EFF1F3"/>
<path d="M1.17188 17.554C1.17188 18.2181 1.67969 18.7259 2.34375 18.7259C3.00781 18.7259 3.51562 18.2181 3.51562 17.554V11.304C3.51562 10.6399 3.00781 10.1321 2.34375 10.1321C1.67969 10.1321 1.17188 10.6399 1.17188 11.304V17.554Z" fill="#EFF1F3"/>
<path d="M0 35.5228V37.8665C0 38.5306 0.507812 39.0384 1.17188 39.0384H3.51562V42.9446C3.51562 43.6087 4.02344 44.1165 4.6875 44.1165H8.20312C8.86719 44.1165 9.375 43.6087 9.375 42.9446V39.0384H30.4688V42.9446C30.4688 43.6087 30.9766 44.1165 31.6406 44.1165H35.1562C35.8203 44.1165 36.3281 43.6087 36.3281 42.9446V39.0384H38.6719C39.3359 39.0384 39.8438 38.5306 39.8438 37.8665V35.5228C39.8438 34.8587 39.3359 34.3509 38.6719 34.3509V24.5853C38.6719 21.7728 36.4062 19.5071 33.5938 19.5071H25H19.9219H6.25C3.4375 19.5071 1.17188 21.7728 1.17188 24.5853V31.6165C1.17188 32.2806 1.67969 32.7884 2.34375 32.7884C3.00781 32.7884 3.51562 32.2806 3.51562 31.6165V24.5853C3.51562 23.0618 4.72656 21.8509 6.25 21.8509H10.7031C9.76563 22.6321 9.10156 23.7649 8.90625 25.054L7.57813 34.3509H1.17188C0.507812 34.3509 0 34.8587 0 35.5228ZM33.9844 26.5384C34.8438 26.5384 35.5469 27.2415 35.5469 28.1009C35.5469 28.9603 34.8438 29.6634 33.9844 29.6634C33.125 29.6634 32.4219 28.9603 32.4219 28.1009C32.4219 27.2415 33.125 26.5384 33.9844 26.5384ZM11.2109 25.3665C11.4062 24.0384 12.5781 23.0228 13.9062 23.0228H17.1875C16.5234 23.0228 16.0156 23.5306 16.0156 24.1946C16.0156 24.8587 16.5234 25.3665 17.1875 25.3665H22.6562C23.3203 25.3665 23.8281 25.8743 23.8281 26.5384C23.8281 27.2024 23.3203 27.7103 22.6562 27.7103H17.1875C16.5234 27.7103 16.0156 28.2181 16.0156 28.8821C16.0156 29.5462 16.5234 30.054 17.1875 30.054H22.6562C23.3203 30.054 23.8281 30.5618 23.8281 31.2259C23.8281 31.8899 23.3203 32.3978 22.6562 32.3978H16.9922C16.4453 32.3978 16.0156 32.8274 16.0156 33.3743C16.0156 33.9212 16.4453 34.3509 16.9922 34.3509H9.96094L11.2109 25.3665Z" fill="#EFF1F3"/>
<path d="M5.85938 7.00713C6.50658 7.00713 7.03125 6.48246 7.03125 5.83525C7.03125 5.18804 6.50658 4.66338 5.85938 4.66338C5.21217 4.66338 4.6875 5.18804 4.6875 5.83525C4.6875 6.48246 5.21217 7.00713 5.85938 7.00713Z" fill="#EFF1F3"/>
<path d="M5.85938 29.6634C6.72232 29.6634 7.42188 28.9638 7.42188 28.1009C7.42188 27.2379 6.72232 26.5384 5.85938 26.5384C4.99643 26.5384 4.29688 27.2379 4.29688 28.1009C4.29688 28.9638 4.99643 29.6634 5.85938 29.6634Z" fill="#EFF1F3"/>
</svg>
