<svg width="400" height="275" viewBox="0 0 400 275" fill="none" xmlns="http://www.w3.org/2000/svg">
<g clip-path="url(#clip0_31_3)">
<path fill-rule="evenodd" clip-rule="evenodd" d="M314.491 142.064C314.491 142.064 292.157 191.357 289.49 244.952C289.49 244.952 301.99 190.64 314.491 142.064Z" fill="#72C456"/>
<path fill-rule="evenodd" clip-rule="evenodd" d="M274.531 179.945C274.531 179.945 290.606 180.363 293.053 233.959C293.053 233.959 286.193 193.508 274.531 179.945Z" fill="#72C456"/>
<path fill-rule="evenodd" clip-rule="evenodd" d="M290.946 126C290.946 126 300.33 182.704 291.093 240.404C291.093 240.404 291.642 180.14 290.946 126Z" fill="#72C456"/>
<path fill-rule="evenodd" clip-rule="evenodd" d="M303.604 255.578H280.396C280.222 255.578 280.048 255.575 279.875 255.568C269.293 255.173 263.405 241.787 269.398 232.13L274.715 223.564H309.285L314.601 232.13C320.595 241.787 314.707 255.173 304.125 255.568C303.952 255.575 303.779 255.578 303.604 255.578Z" fill="#9A7B5F"/>
<path d="M267 243.266H317" stroke="#A78567" stroke-width="7.2"/>
<path d="M268.161 234.987H316" stroke="#A78567" stroke-width="7.2"/>
<path fill-rule="evenodd" clip-rule="evenodd" d="M402.693 131.061C402.693 139.378 397.636 146.121 391.397 146.121C385.159 146.121 380.102 139.378 380.102 131.061C380.102 122.743 385.159 116 391.397 116C397.636 116 402.693 122.743 402.693 131.061Z" fill="#72C456"/>
<path d="M391.482 210.164V131.826" stroke="#8DE36F" stroke-width="7.2"/>
<path fill-rule="evenodd" clip-rule="evenodd" d="M379.317 153.184C384.651 158.519 385.732 166.085 381.731 170.086C377.731 174.086 370.164 173.006 364.83 167.672C359.496 162.337 358.415 154.77 362.415 150.77C366.416 146.769 373.983 147.85 379.317 153.184Z" fill="#72C456"/>
<path fill-rule="evenodd" clip-rule="evenodd" d="M417.403 164.143C421.704 168.445 420.542 176.581 414.807 182.316C409.072 188.051 400.936 189.213 396.635 184.912" fill="#72C456"/>
<path d="M411.608 171.72L391.816 191.569" stroke="#8DE36F" stroke-width="7.2"/>
<path d="M405.889 152.739L391.425 167.033" stroke="#8DE36F" stroke-width="7.2"/>
<path d="M376.406 184.115L391.517 199.396" stroke="#8DE36F" stroke-width="7.2"/>
<path d="M371.198 159.655L391.397 180.095" stroke="#8DE36F" stroke-width="7.2"/>
<path fill-rule="evenodd" clip-rule="evenodd" d="M397.539 237.068H385.425C376.12 237.068 368.508 229.456 368.508 220.151V204.232H414.456V220.151C414.456 229.456 406.843 237.068 397.539 237.068Z" fill="#9A7B5F"/>
<path d="M414.456 213.08H368.508" stroke="#A78567" stroke-width="7.2"/>
<path d="M414.456 221.955H368.508" stroke="#A78567" stroke-width="7.2"/>
<path d="M24.5979 49.1963C21.3676 49.1963 18.169 48.56 15.1847 47.3239C12.2003 46.0877 9.48867 44.2758 7.20455 41.9917C4.92042 39.7076 3.10856 36.9959 1.8724 34.0116C0.636243 31.0272 0 27.8286 0 24.5984C0 21.3682 0.636243 18.1696 1.8724 15.1852C3.10856 12.2009 4.92042 9.48922 7.20455 7.2051C9.48867 4.92097 12.2003 3.1091 15.1847 1.87294C18.169 0.636784 21.3676 0.00054922 24.5979 0.000549316H248.475C251.705 0.00054922 254.904 0.636784 257.888 1.87294C260.873 3.1091 263.584 4.92097 265.868 7.2051C268.152 9.48922 269.964 12.2009 271.201 15.1852C272.437 18.1696 273.073 21.3682 273.073 24.5984C273.073 27.8286 272.437 31.0272 271.201 34.0116C269.964 36.9959 268.152 39.7076 265.868 41.9917C263.584 44.2758 260.873 46.0877 257.888 47.3239C254.904 48.56 251.705 49.1963 248.475 49.1963H24.5979Z" fill="#E6E6E6"/>
<path d="M24.5978 3.20895C18.925 3.20895 13.4845 5.46248 9.4732 9.47378C5.4619 13.4851 3.20837 18.9256 3.20837 24.5984C3.20837 30.2712 5.4619 35.7117 9.4732 39.723C13.4845 43.7343 18.925 45.9878 24.5978 45.9878H248.475C254.148 45.9878 259.588 43.7343 263.6 39.723C267.611 35.7117 269.865 30.2712 269.865 24.5984C269.865 18.9256 267.611 13.4851 263.6 9.47378C259.588 5.46248 254.148 3.20895 248.475 3.20895H24.5978Z" fill="white"/>
<path d="M92.5099 3.2084H91.7969V45.9873H92.5099V3.2084Z" fill="#E6E6E6"/>
<path d="M181.277 3.2084H180.564V45.9873H181.277V3.2084Z" fill="#E6E6E6"/>
<path d="M180.564 3.2084H92.5099V45.9873H180.564V3.2084Z" fill="#698DF6"/>
<path d="M136.577 11.5554C133.989 11.5554 131.46 12.3227 129.309 13.7602C127.157 15.1977 125.481 17.2408 124.49 19.6313C123.5 22.0218 123.241 24.6522 123.746 27.1899C124.251 29.7276 125.497 32.0586 127.326 33.8882C129.156 35.7178 131.487 36.9637 134.025 37.4685C136.562 37.9733 139.193 37.7142 141.583 36.7241C143.974 35.7339 146.017 34.0571 147.454 31.9057C148.892 29.7544 149.659 27.2251 149.659 24.6376C149.659 21.168 148.281 17.8405 145.827 15.3871C143.374 12.9337 140.046 11.5554 136.577 11.5554ZM136.577 15.4801C137.353 15.4801 138.112 15.7103 138.757 16.1415C139.403 16.5728 139.906 17.1857 140.203 17.9029C140.5 18.62 140.578 19.4091 140.426 20.1704C140.275 20.9317 139.901 21.631 139.352 22.1799C138.803 22.7288 138.104 23.1026 137.343 23.254C136.581 23.4054 135.792 23.3277 135.075 23.0307C134.358 22.7336 133.745 22.2306 133.314 21.5852C132.882 20.9398 132.652 20.181 132.652 19.4048C132.652 18.364 133.066 17.3658 133.802 16.63C134.538 15.894 135.536 15.4806 136.577 15.4806V15.4801ZM136.577 34.3741C135.026 34.367 133.501 33.9817 132.133 33.2518C130.766 32.5218 129.596 31.4691 128.728 30.1851C128.79 27.5686 133.96 26.1285 136.577 26.1285C139.193 26.1285 144.364 27.5686 144.426 30.1851C143.556 31.4681 142.387 32.5201 141.019 33.2499C139.652 33.9798 138.127 34.3656 136.577 34.3741Z" fill="white"/>
<path d="M47.808 11.5554C45.2205 11.5554 42.6912 12.3227 40.5399 13.7602C38.3885 15.1977 36.7117 17.2408 35.7216 19.6313C34.7314 22.0218 34.4723 24.6522 34.9771 27.1899C35.4819 29.7276 36.7278 32.0586 38.5574 33.8882C40.387 35.7178 42.718 36.9637 45.2557 37.4685C47.7934 37.9733 50.4238 37.7142 52.8143 36.7241C55.2048 35.7339 57.2479 34.0571 58.6854 31.9057C60.1229 29.7544 60.8902 27.2251 60.8902 24.6376C60.8902 21.168 59.5119 17.8405 57.0585 15.3871C54.6051 12.9337 51.2776 11.5554 47.808 11.5554ZM47.808 15.4801C48.5842 15.4801 49.343 15.7103 49.9884 16.1415C50.6338 16.5728 51.1368 17.1857 51.4339 17.9029C51.7309 18.62 51.8086 19.4091 51.6572 20.1704C51.5058 20.9317 51.132 21.631 50.5831 22.1799C50.0342 22.7288 49.3349 23.1026 48.5736 23.254C47.8123 23.4054 47.0232 23.3277 46.3061 23.0307C45.5889 22.7336 44.976 22.2306 44.5447 21.5852C44.1135 20.9398 43.8833 20.181 43.8833 19.4048C43.8833 18.3639 44.2968 17.3656 45.0328 16.6296C45.7688 15.8936 46.7671 15.4801 47.808 15.4801ZM47.808 34.3741C46.2575 34.367 44.7323 33.9817 43.3644 33.2518C41.9966 32.5218 40.8275 31.4691 39.9586 30.1851C40.0213 27.5686 45.1915 26.1285 47.808 26.1285C50.4244 26.1285 55.5946 27.5686 55.6573 30.1851C54.7874 31.4681 53.6181 32.5201 52.2505 33.2499C50.8829 33.9798 49.3581 34.3656 47.808 34.3741Z" fill="#E6E6E6"/>
<path d="M225.261 11.5554C222.674 11.5554 220.144 12.3227 217.993 13.7602C215.842 15.1977 214.165 17.2408 213.175 19.6313C212.185 22.0218 211.926 24.6522 212.43 27.1899C212.935 29.7276 214.181 32.0586 216.011 33.8882C217.84 35.7178 220.171 36.9637 222.709 37.4685C225.247 37.9733 227.877 37.7142 230.268 36.7241C232.658 35.7339 234.701 34.0571 236.139 31.9057C237.576 29.7544 238.343 27.2251 238.343 24.6376C238.343 21.168 236.965 17.8405 234.512 15.3871C232.058 12.9337 228.731 11.5554 225.261 11.5554ZM225.261 15.4801C226.037 15.4801 226.796 15.7103 227.442 16.1415C228.087 16.5728 228.59 17.1857 228.887 17.9029C229.184 18.62 229.262 19.4091 229.11 20.1704C228.959 20.9317 228.585 21.631 228.036 22.1799C227.487 22.7288 226.788 23.1026 226.027 23.254C225.266 23.4054 224.476 23.3277 223.759 23.0307C223.042 22.7336 222.429 22.2306 221.998 21.5852C221.567 20.9398 221.337 20.181 221.337 19.4048C221.337 18.3639 221.75 17.3656 222.486 16.6296C223.222 15.8936 224.22 15.4801 225.261 15.4801ZM225.261 34.3741C223.711 34.367 222.186 33.9817 220.818 33.2518C219.45 32.5218 218.281 31.4691 217.412 30.1851C217.475 27.5686 222.645 26.1285 225.261 26.1285C227.878 26.1285 233.048 27.5686 233.111 30.1851C232.241 31.4681 231.071 32.5201 229.704 33.2499C228.336 33.9798 226.811 34.3656 225.261 34.3741Z" fill="#E6E6E6"/>
<path d="M148.569 67.1244H124.585C122.778 67.1244 121.314 68.5886 121.314 70.3949V94.379C121.314 96.1853 122.778 97.6496 124.585 97.6496H148.569C150.375 97.6496 151.839 96.1853 151.839 94.379V70.3949C151.839 68.5886 150.375 67.1244 148.569 67.1244Z" fill="#698DF6"/>
<path d="M326.718 274.6C367.191 274.6 400 270.207 400 264.789C400 259.37 367.191 254.977 326.718 254.977C286.246 254.977 253.437 259.37 253.437 264.789C253.437 270.207 286.246 274.6 326.718 274.6Z" fill="#E6E6E6"/>
<path d="M237.255 67.0262H213.271C211.465 67.0262 210.001 68.4905 210.001 70.2968V94.2809C210.001 96.0872 211.465 97.5514 213.271 97.5514H237.255C239.062 97.5514 240.526 96.0872 240.526 94.2809V70.2968C240.526 68.4905 239.062 67.0262 237.255 67.0262Z" fill="#E6E6E6"/>
<path d="M236.6 71.2676H214.362V93.5063H236.6V71.2676Z" fill="white"/>
<path d="M135.145 87.1265L131.288 82.1662L133.531 80.4219L135.357 82.7696L141.526 76.2579L143.589 78.2121L135.145 87.1265Z" fill="white"/>
<path d="M223.976 87.1265L220.12 82.1662L222.362 80.4219L224.188 82.7696L230.357 76.2579L232.42 78.2121L223.976 87.1265Z" fill="#E6E6E6"/>
<path d="M59.8021 67.0262H35.818C34.0118 67.0262 32.5475 68.4905 32.5475 70.2968V94.2809C32.5475 96.0872 34.0118 97.5514 35.818 97.5514H59.8021C61.6084 97.5514 63.0727 96.0872 63.0727 94.2809V70.2968C63.0727 68.4905 61.6084 67.0262 59.8021 67.0262Z" fill="#E6E6E6"/>
<path d="M59.1469 71.2676H36.9082V93.5063H59.1469V71.2676Z" fill="white"/>
<path d="M46.5232 87.1265L42.6666 82.1662L44.9091 80.4219L46.7352 82.7696L52.904 76.2579L54.9672 78.2121L46.5232 87.1265Z" fill="#E6E6E6"/>
<path d="M376.119 257.031H368.935L365.518 229.32H376.121L376.119 257.031Z" fill="#DEB399"/>
<path d="M363.8 254.978H377.655V263.699H355.078C355.078 261.386 355.997 259.168 357.633 257.532C359.268 255.896 361.487 254.978 363.8 254.978Z" fill="#A99C8A"/>
<path d="M302.722 257.031H295.538L292.121 229.32H302.724L302.722 257.031Z" fill="#DEB399"/>
<path d="M290.406 254.978H304.261V263.699H281.683C281.683 261.386 282.601 259.168 284.237 257.532C285.873 255.896 288.091 254.978 290.404 254.978H290.406Z" fill="#A99C8A"/>
<path d="M326.718 51.4813V48.3388C326.718 42.9638 328.853 37.8089 332.654 34.0082C336.455 30.2075 341.61 28.0723 346.985 28.0723C352.36 28.0723 357.515 30.2075 361.315 34.0082C365.116 37.8089 367.251 42.9638 367.251 48.3388V51.4807C367.251 55.3551 365.712 59.0709 362.973 61.8105C360.233 64.5501 356.517 66.0892 352.643 66.0892H341.329C337.455 66.0892 333.739 64.5501 330.999 61.8105C328.26 59.0709 326.72 55.3551 326.72 51.4807L326.718 51.4813Z" fill="#AD5820"/>
<path d="M346.985 67.1734C355.51 67.1734 362.42 60.263 362.42 51.7386C362.42 43.2141 355.51 36.3037 346.985 36.3037C338.461 36.3037 331.551 43.2141 331.551 51.7386C331.551 60.263 338.461 67.1734 346.985 67.1734Z" fill="#DEB399"/>
<path d="M263.03 104.783C263.657 104.192 264.405 103.745 265.223 103.474C266.04 103.203 266.908 103.115 267.763 103.215C268.619 103.316 269.442 103.603 270.175 104.056C270.907 104.509 271.532 105.117 272.004 105.837L285.235 103.335L288.717 111.004L269.982 114.275C268.719 114.986 267.24 115.21 265.823 114.904C264.406 114.598 263.151 113.783 262.294 112.614C261.438 111.445 261.04 110.002 261.175 108.559C261.311 107.116 261.971 105.772 263.03 104.783Z" fill="#FFB8B8"/>
<path d="M334.952 76.893L335.125 77.1552L313.43 91.448L276.819 103.139C276.334 103.295 275.918 103.614 275.641 104.042C275.365 104.471 275.246 104.982 275.303 105.488L276.102 112.367C276.137 112.672 276.236 112.965 276.392 113.229C276.547 113.493 276.756 113.722 277.005 113.901C277.255 114.079 277.538 114.204 277.838 114.266C278.138 114.329 278.448 114.328 278.748 114.264L313.204 106.879C314.872 106.523 316.449 105.829 317.838 104.839L342.209 87.4967C343.547 86.5434 344.457 85.1032 344.743 83.4857C345.03 81.8682 344.67 80.2029 343.742 78.8479C342.813 77.4929 341.39 76.5565 339.778 76.2403C338.166 75.924 336.494 76.2531 335.123 77.1568L334.952 76.893Z" fill="#E7C06A"/>
<path d="M369.063 249.167C368.511 249.167 367.971 249.007 367.51 248.705C367.048 248.404 366.684 247.974 366.462 247.469L333.527 166.087C333.45 165.91 333.321 165.762 333.157 165.661C332.993 165.56 332.802 165.511 332.61 165.522C332.418 165.533 332.233 165.602 332.082 165.721C331.93 165.84 331.819 166.002 331.762 166.186L304.892 245.415C304.778 245.784 304.591 246.126 304.34 246.419C304.09 246.713 303.782 246.952 303.436 247.122C303.09 247.292 302.712 247.39 302.327 247.409C301.942 247.428 301.557 247.368 301.195 247.232L292.185 243.853C291.696 243.671 291.267 243.357 290.945 242.946C290.624 242.535 290.423 242.043 290.364 241.525C286.311 206.212 321.66 117.08 322.017 116.183L322.117 115.935L354.34 123.063L354.407 123.136C367.263 137.161 377.831 225.62 379.818 243.211C379.893 243.846 379.748 244.488 379.409 245.03C379.069 245.572 378.555 245.982 377.952 246.193L369.998 249.006C369.698 249.112 369.381 249.167 369.063 249.167Z" fill="#394F5C"/>
<path d="M341.299 125.934C333.492 125.934 324.788 124.378 322.108 117.953L322.047 117.805L322.13 117.669C324.245 114.199 327.04 108.28 325.538 107.169C322.578 104.98 321.142 101.381 321.27 96.4694C321.546 85.808 328.811 76.3419 339.346 72.9149C342.287 71.9737 345.28 71.2031 348.309 70.6069C350.518 70.1613 352.798 70.2104 354.986 70.7506C357.173 71.2909 359.214 72.3088 360.961 73.7314C362.73 75.1634 364.16 76.9694 365.149 79.0198C366.137 81.0701 366.659 83.3139 366.677 85.5899C366.786 96.9823 365.033 112.853 356.048 123.746C355.626 124.252 355.04 124.593 354.393 124.708C350.071 125.491 345.691 125.901 341.299 125.934Z" fill="#E7C06A"/>
<path d="M338.395 125.505C338.82 123.981 339.829 122.686 341.203 121.902C342.577 121.118 344.206 120.908 345.734 121.317C346.046 121.405 346.35 121.517 346.644 121.654L356.69 112.512L363.677 117.218L349.31 129.932C348.661 131.102 347.639 132.021 346.408 132.543C345.177 133.065 343.806 133.161 342.514 132.815C341.762 132.609 341.058 132.256 340.442 131.776C339.827 131.296 339.313 130.699 338.93 130.019C338.547 129.34 338.302 128.591 338.211 127.816C338.119 127.041 338.181 126.256 338.395 125.505Z" fill="#FFB8B8"/>
<path d="M355.099 125.621C354.446 125.621 353.813 125.395 353.309 124.981L349.347 121.744C349.017 121.474 348.752 121.133 348.572 120.746C348.393 120.359 348.303 119.937 348.309 119.51C348.316 119.084 348.419 118.664 348.61 118.283C348.802 117.902 349.077 117.57 349.416 117.31L366.033 104.566C366.23 104.414 366.359 104.191 366.392 103.944C366.425 103.698 366.36 103.448 366.211 103.249L355.955 89.6901C354.763 88.1201 354.166 86.179 354.268 84.2106C354.37 82.2422 355.165 80.3733 356.512 78.9349C357.932 77.4022 359.875 76.4589 361.958 76.2924C364.04 76.1259 366.109 76.7483 367.753 78.0361L367.818 78.1047L378.528 93.4398C379.686 94.3478 380.618 95.5112 381.252 96.8392C381.887 98.1672 382.205 99.6239 382.183 101.095C382.161 102.567 381.8 104.013 381.126 105.322C380.453 106.63 379.486 107.766 378.301 108.639L356.781 125.064C356.293 125.424 355.703 125.619 355.097 125.619L355.099 125.621Z" fill="#E7C06A"/>
<path d="M333.313 47.3964V39.7384L346.985 33.7663L360.022 39.7362V47.3942C360.022 47.5593 359.989 47.7227 359.926 47.8752C359.863 48.0277 359.77 48.1663 359.654 48.283C359.537 48.3997 359.398 48.4923 359.246 48.5555C359.093 48.6187 358.93 48.6512 358.765 48.6512H334.57C334.405 48.6512 334.242 48.6187 334.089 48.5555C333.937 48.4923 333.798 48.3997 333.682 48.283C333.565 48.1663 333.472 48.0277 333.409 47.8752C333.346 47.7227 333.313 47.5593 333.313 47.3942V47.3964Z" fill="#AD5820"/>
<path d="M358.681 35.8317C363.414 35.8317 367.251 31.9948 367.251 27.2617C367.251 22.5287 363.414 18.6918 358.681 18.6918C353.948 18.6918 350.111 22.5287 350.111 27.2617C350.111 31.9948 353.948 35.8317 358.681 35.8317Z" fill="#AD5820"/>
<path d="M350.771 22.6644C350.77 21.3965 351.051 20.1443 351.593 18.9981C352.135 17.852 352.925 16.8404 353.905 16.0364C354.886 15.2325 356.032 14.6562 357.263 14.3491C358.493 14.042 359.776 14.0118 361.019 14.2607C359.922 13.7437 358.727 13.4656 357.514 13.4448C356.302 13.424 355.098 13.661 353.984 14.1401C352.87 14.6192 351.87 15.3295 351.051 16.224C350.231 17.1184 349.611 18.1766 349.232 19.3286C348.852 20.4806 348.721 21.7001 348.848 22.9064C348.975 24.1126 349.357 25.2782 349.968 26.3259C350.579 27.3736 351.406 28.2795 352.394 28.9838C353.381 29.6881 354.507 30.1747 355.697 30.4113C354.225 29.7204 352.981 28.6251 352.109 27.2532C351.237 25.8814 350.774 24.2898 350.773 22.6644H350.771Z" fill="#AD5820"/>
</g>
<defs>
<clipPath id="clip0_31_3">
<rect width="400" height="274.6" fill="white"/>
</clipPath>
</defs>
</svg>
